<?xml version="1.0" standalone="no"?>
<!DOCTYPE svg PUBLIC "-//W3C//DTD SVG 20010904//EN"
 "http://www.w3.org/TR/2001/REC-SVG-20010904/DTD/svg10.dtd">
<svg version="1.0" xmlns="http://www.w3.org/2000/svg"
 width="1436.000000pt" height="1436.000000pt" viewBox="0 0 1436.000000 1436.000000"
 preserveAspectRatio="xMidYMid meet">
<metadata>
Created by potrace 1.14, written by Peter Selinger 2001-2017
</metadata>
<g transform="translate(0.000000,1436.000000) scale(0.100000,-0.100000)"
fill="#000000" stroke="none">
<path d="M4056 11143 c-4 -5 -20 -9 -34 -9 -94 -4 -138 -8 -147 -13 -5 -3 -21
-6 -35 -8 -14 -1 -38 -4 -55 -7 -16 -3 -47 -8 -69 -11 -21 -3 -44 -8 -49 -12
-6 -4 -20 -8 -31 -9 -26 -2 -75 -13 -101 -21 -11 -4 -26 -8 -32 -10 -25 -6
-39 -10 -83 -23 -25 -8 -48 -14 -52 -16 -5 -1 -10 -3 -13 -4 -3 -1 -9 -4 -15
-5 -5 -1 -12 -4 -15 -5 -3 -1 -9 -4 -15 -5 -5 -1 -12 -4 -15 -5 -3 -1 -8 -3
-12 -4 -5 -1 -12 -4 -18 -7 -5 -4 -28 -12 -50 -19 -22 -7 -53 -18 -70 -25
-125 -53 -158 -65 -171 -65 -8 0 -14 -4 -14 -8 0 -5 -6 -9 -12 -9 -12 0 -67
-24 -174 -74 -22 -10 -46 -19 -52 -19 -7 0 -12 -4 -12 -10 0 -5 -8 -10 -17
-10 -10 0 -33 -9 -50 -20 -18 -11 -33 -18 -33 -15 0 3 -17 -4 -37 -15 -42 -21
-83 -37 -97 -38 -5 0 -12 -5 -16 -12 -4 -6 -13 -13 -21 -14 -8 -2 -32 -11 -54
-22 -22 -10 -45 -19 -51 -19 -6 0 -18 -5 -25 -11 -18 -14 -240 -107 -256 -107
-7 0 -13 -4 -13 -9 0 -5 -4 -7 -9 -3 -5 3 -12 1 -16 -5 -4 -6 -11 -8 -16 -5
-5 4 -9 1 -9 -6 0 -7 -3 -10 -6 -7 -3 4 -24 -2 -47 -12 -23 -10 -45 -16 -49
-14 -5 3 -11 -2 -14 -10 -3 -9 -10 -13 -15 -11 -5 3 -21 -1 -36 -8 -15 -8 -36
-13 -45 -12 -10 2 -18 -1 -18 -6 0 -5 -3 -8 -7 -7 -5 1 -33 -6 -63 -15 -30
-10 -64 -20 -75 -22 -11 -2 -21 -4 -22 -5 -2 -2 -7 -4 -13 -5 -5 -1 -11 -3
-12 -5 -4 -2 -40 -10 -60 -12 -10 -1 -18 -5 -18 -8 0 -3 -10 -6 -22 -6 -29 -2
-70 -12 -103 -24 -14 -5 -25 -7 -25 -4 0 4 -6 2 -13 -3 -6 -6 -20 -9 -30 -8
-9 2 -17 0 -17 -4 0 -4 -12 -8 -26 -9 -15 -1 -33 -7 -40 -13 -7 -6 -18 -8 -23
-5 -5 4 -12 2 -16 -4 -3 -5 -16 -10 -29 -10 -12 0 -26 -3 -30 -7 -6 -6 -16 -9
-56 -17 -8 -2 -33 -11 -55 -21 -22 -10 -45 -18 -51 -19 -7 -1 -20 -8 -30 -16
-11 -9 -15 -10 -10 -2 4 6 -9 3 -28 -9 -20 -12 -36 -17 -36 -12 0 4 -4 3 -8
-2 -4 -6 -43 -28 -87 -49 -44 -22 -86 -46 -93 -53 -7 -7 -17 -13 -22 -13 -5 0
-15 -6 -22 -13 -7 -7 -44 -36 -81 -65 -38 -29 -66 -52 -63 -52 2 0 -12 -18
-32 -39 -62 -66 -105 -123 -105 -137 0 -8 -4 -14 -8 -14 -9 0 -39 -58 -39 -77
0 -7 -4 -13 -9 -13 -5 0 -19 -26 -31 -57 -11 -32 -25 -67 -29 -78 -5 -11 -13
-33 -17 -50 -4 -16 -9 -36 -11 -42 -1 -7 -5 -21 -7 -30 -3 -10 -5 -18 -6 -18
-4 0 -22 -99 -23 -132 -1 -18 -5 -33 -8 -33 -4 0 -7 -15 -8 -32 -3 -71 -8
-115 -15 -126 -4 -7 -2 -12 6 -12 9 0 9 -3 2 -8 -6 -4 -10 -31 -10 -60 1 -30
-2 -59 -6 -65 -4 -6 -2 -17 4 -24 7 -9 7 -13 -1 -13 -6 0 -11 -5 -11 -11 0 -5
4 -8 9 -5 5 4 5 -10 0 -32 -4 -20 -9 -37 -11 -38 -2 0 3 -8 11 -17 7 -10 9
-17 4 -17 -5 0 -9 -9 -9 -20 0 -11 4 -20 9 -20 5 0 5 -6 -1 -13 -6 -7 -7 -18
-3 -26 5 -8 5 -26 1 -42 -5 -15 -6 -30 -3 -33 3 -3 7 -42 9 -88 4 -101 12
-217 18 -278 3 -25 8 -76 11 -115 11 -112 13 -127 20 -175 3 -25 8 -63 10 -85
2 -22 5 -40 6 -40 0 0 3 -17 4 -38 2 -21 6 -45 9 -53 3 -8 1 -14 -4 -14 -5 0
-7 -9 -5 -20 2 -11 0 -22 -6 -25 -5 -4 -9 -16 -9 -29 0 -12 -3 -26 -7 -30 -4
-3 -8 -12 -9 -19 -1 -7 -12 -56 -23 -110 -12 -55 -18 -103 -15 -108 3 -5 1 -9
-3 -9 -5 0 -10 -10 -11 -22 -1 -13 -4 -39 -7 -58 -9 -73 -15 -126 -19 -171 -1
-25 -7 -52 -11 -59 -6 -9 -4 -11 4 -5 10 5 11 3 4 -11 -11 -22 -11 -34 0 -51
4 -6 3 -14 -2 -17 -9 -6 -11 -52 -12 -278 0 -76 2 -142 6 -148 3 -5 0 -10 -7
-10 -8 0 -9 -3 -3 -8 6 -4 10 -25 10 -47 -1 -22 4 -43 10 -47 7 -5 6 -8 -1 -8
-8 0 -9 -11 -4 -35 5 -21 4 -35 -2 -35 -5 0 -6 -6 -1 -12 4 -7 9 -26 10 -43 0
-16 2 -30 3 -30 1 0 3 -20 5 -45 4 -49 13 -118 20 -165 2 -16 7 -56 11 -87 4
-32 10 -58 13 -58 3 0 7 -20 8 -45 1 -24 7 -54 14 -66 8 -16 8 -20 -1 -14 -9
5 -9 3 -2 -11 10 -20 27 -103 24 -116 -1 -5 2 -8 7 -8 5 0 7 -9 4 -20 -3 -11
-1 -20 4 -20 5 0 10 -10 11 -22 4 -53 7 -73 14 -78 4 -3 9 -17 11 -30 2 -14 7
-32 10 -40 6 -15 38 -125 43 -145 1 -5 12 -41 25 -80 13 -38 22 -73 21 -78 -1
-4 2 -7 8 -7 5 0 10 -11 10 -24 0 -13 4 -26 10 -28 5 -1 11 -12 13 -23 4 -21
13 -47 28 -80 45 -104 57 -135 51 -135 -4 0 -2 -4 4 -8 12 -8 49 -84 46 -94
-1 -5 3 -8 10 -8 6 0 8 -3 5 -7 -4 -3 -3 -11 2 -17 5 -6 26 -44 45 -83 20 -40
41 -73 46 -73 6 0 9 -3 8 -7 -2 -10 18 -51 42 -88 11 -16 23 -38 26 -47 4 -10
10 -18 15 -18 5 0 9 -7 9 -15 0 -8 5 -15 10 -15 6 0 10 -7 10 -15 0 -8 5 -15
10 -15 6 0 10 -7 10 -15 0 -9 7 -18 15 -21 8 -3 17 -15 21 -26 6 -19 11 -27
62 -83 12 -14 20 -25 17 -25 -3 0 5 -11 19 -24 15 -13 26 -27 26 -31 0 -13
222 -239 285 -290 20 -16 53 -45 73 -64 21 -19 39 -33 41 -31 4 3 37 -18 57
-37 7 -7 17 -13 23 -13 6 0 11 -4 11 -10 0 -5 7 -10 15 -10 8 0 15 -3 15 -7 0
-5 10 -13 23 -19 12 -6 74 -38 137 -71 63 -32 147 -71 185 -85 116 -43 206
-70 212 -64 3 3 11 2 17 -3 6 -5 26 -12 44 -15 69 -13 88 -16 127 -20 22 -3
40 -5 40 -6 0 -3 84 -11 110 -11 10 0 25 -4 31 -10 9 -7 15 -5 23 8 6 10 11
13 11 7 0 -7 9 -14 20 -17 13 -3 18 -1 13 6 -4 7 1 6 10 -2 14 -11 17 -11 17
0 0 10 2 11 8 2 4 -6 31 -12 62 -12 30 0 74 -2 98 -5 23 -2 40 -1 37 4 -3 5
-1 12 5 15 6 4 10 3 9 -2 -4 -21 3 -25 19 -10 15 14 19 15 19 2 0 -8 -5 -11
-10 -8 -6 3 -7 2 -4 -3 5 -8 56 -11 65 -4 1 2 10 3 20 4 9 1 23 5 29 9 8 5 11
3 8 -5 -4 -9 3 -13 20 -13 14 1 28 5 32 8 3 4 12 2 19 -4 9 -7 19 -7 33 1 12
6 21 7 21 3 0 -5 12 -8 28 -7 15 1 27 3 27 4 0 8 72 4 77 -4 5 -7 8 -5 8 4 0
13 1 13 10 0 8 -13 10 -13 10 2 0 9 4 20 10 23 5 3 7 0 4 -8 -6 -18 12 -32 21
-17 4 6 11 7 17 4 8 -5 9 -1 4 12 -6 16 -4 15 14 -4 14 -15 26 -20 33 -14 7 5
45 8 84 8 43 -1 73 3 73 9 0 6 5 3 10 -5 9 -13 10 -13 10 0 0 13 1 13 10 0 5
-8 10 -10 10 -4 0 5 15 9 32 8 18 -1 39 3 47 9 12 9 13 9 7 0 -9 -17 6 -17 23
-1 10 9 12 9 7 1 -4 -8 2 -11 21 -8 16 2 28 4 28 5 0 1 12 3 28 4 15 1 27 -3
27 -9 0 -6 3 -6 8 1 4 6 39 10 80 10 56 -1 76 3 83 14 5 9 9 10 9 3 0 -8 13
-11 41 -8 23 2 82 7 133 10 50 4 109 8 131 10 83 8 193 16 270 20 44 2 80 5
80 5 0 1 19 3 140 15 28 2 66 6 85 9 19 2 62 7 95 11 76 9 100 13 100 15 0 1
18 4 40 6 22 3 57 9 78 15 21 6 50 12 65 14 28 5 63 12 72 15 3 1 10 3 15 5 6
1 12 3 15 4 3 2 14 4 25 6 29 5 53 11 120 31 33 10 62 18 65 19 22 4 88 30 99
39 12 8 13 8 7 -2 -6 -11 -4 -11 10 -4 11 6 35 17 54 25 177 74 218 92 240
107 14 10 27 17 30 17 8 -2 145 76 148 85 2 4 8 8 14 8 6 0 26 11 43 25 18 13
35 21 39 18 3 -4 6 -1 6 5 0 7 5 12 10 12 6 0 23 12 39 26 16 14 31 24 33 22
2 -1 16 8 30 22 14 14 48 43 74 65 56 46 114 98 152 138 98 100 122 128 122
138 0 7 3 9 6 6 4 -4 20 10 35 31 16 20 32 42 37 47 4 6 28 38 52 73 24 34 48
62 52 62 4 0 8 7 8 15 0 8 5 15 11 15 5 0 8 4 5 9 -4 5 -3 11 1 13 11 4 63 86
63 98 0 5 4 10 8 10 9 0 47 71 44 83 -1 4 2 7 6 7 5 0 24 30 42 68 19 37 37
68 41 70 5 2 5 10 2 19 -4 11 -2 14 5 9 7 -4 12 -2 12 4 0 16 82 184 92 188 4
2 5 8 2 14 -4 6 -2 13 3 17 15 10 43 72 37 82 -3 5 -1 9 5 9 5 0 12 8 14 18 3
9 5 -2 6 -25 0 -24 6 -43 11 -44 6 0 51 -1 100 -1 81 -1 90 -3 90 -19 0 -11
-4 -19 -10 -19 -5 0 -10 -5 -10 -11 0 -8 4 -9 13 0 8 6 17 8 20 4 10 -9 9 -25
-1 -19 -4 2 -14 0 -22 -6 -12 -8 -12 -9 3 -4 22 7 22 -10 0 -23 -10 -5 -14
-13 -9 -18 5 -4 11 -2 13 5 4 10 8 10 19 1 21 -17 17 -27 -8 -24 -18 2 -23 -3
-24 -21 -1 -13 2 -21 7 -18 5 3 9 12 9 20 0 8 4 14 10 14 5 0 9 -6 7 -13 -1
-7 7 -11 21 -10 12 2 22 -2 22 -8 0 -8 5 -7 15 1 12 10 18 10 32 -1 11 -10 14
-10 9 -1 -4 6 -3 12 3 12 5 0 18 3 28 7 16 6 16 5 4 -10 -7 -9 -9 -17 -5 -17
5 0 15 9 22 20 7 11 17 20 23 20 8 0 7 -5 -1 -15 -7 -9 -10 -18 -7 -22 4 -3 9
2 13 11 3 9 11 16 16 16 6 0 8 -6 5 -13 -3 -7 3 -13 14 -13 17 0 17 2 2 18
-21 23 -6 23 20 0 11 -9 17 -11 13 -4 -10 17 9 15 28 -3 8 -8 18 -15 23 -15 4
1 -2 9 -14 19 -30 25 -16 35 15 10 15 -11 33 -17 44 -14 11 4 18 1 18 -7 0 -8
3 -9 8 -3 4 6 14 10 22 10 11 0 15 10 14 33 -1 20 3 31 10 29 6 -2 9 -13 7
-23 -2 -13 6 -9 28 16 27 31 30 33 28 12 0 -12 -9 -24 -19 -28 -10 -3 -15 -11
-11 -20 3 -10 0 -12 -10 -9 -8 4 -17 -1 -21 -11 -5 -14 -4 -15 8 -5 11 9 15 9
19 -1 4 -9 6 -10 6 -1 1 7 7 10 15 7 17 -6 23 11 19 56 -5 73 -3 100 8 100 14
0 20 -18 8 -25 -5 -4 -7 -14 -3 -24 9 -23 11 -83 3 -102 -6 -12 -3 -15 13 -14
12 1 24 7 26 13 2 7 9 9 15 6 8 -5 8 -2 0 7 -15 15 -17 33 -4 25 12 -8 8 18
-5 35 -24 31 -28 43 -11 36 9 -3 19 -1 23 5 5 7 3 8 -5 4 -8 -6 -11 -2 -9 10
2 13 -3 19 -16 19 -11 0 -21 5 -23 12 -4 12 24 11 50 -2 6 -4 3 0 -7 9 -17 14
-17 16 -3 22 15 5 14 8 -5 23 -12 10 -18 23 -14 29 10 17 26 15 20 -2 -3 -8
-2 -16 3 -19 4 -3 8 8 8 23 1 23 -2 27 -16 20 -16 -9 -29 -4 -29 11 0 5 6 6
13 3 8 -3 20 3 27 13 12 15 12 16 0 5 -8 -6 -19 -12 -24 -12 -6 1 -1 9 11 19
22 18 22 19 3 24 -12 3 -18 11 -15 19 7 17 -27 50 -45 46 -7 -2 -14 2 -17 9
-3 8 4 11 19 8 28 -5 71 -52 62 -67 -4 -7 -2 -8 4 -4 9 5 9 13 1 28 -8 16 -8
23 2 30 10 6 6 7 -11 2 -22 -6 -23 -5 -11 10 9 10 10 16 2 16 -6 0 -11 -5 -11
-11 0 -8 -4 -8 -15 1 -8 6 -19 8 -26 4 -7 -4 -10 -2 -7 7 3 8 19 14 41 14 19
0 39 4 44 9 4 5 3 6 -4 2 -7 -4 -13 -3 -13 1 0 5 6 15 13 23 10 12 9 12 -3 4
-19 -14 -72 -12 -77 2 -2 7 9 10 30 9 19 -2 40 1 48 6 9 5 -6 7 -39 5 -39 -2
-51 1 -48 10 3 7 0 11 -7 8 -9 -3 -13 5 -12 22 0 15 6 29 14 32 8 3 11 0 7 -6
-7 -12 14 -52 28 -52 4 0 3 6 -3 14 -17 20 -23 58 -8 53 7 -3 11 -10 9 -17 -4
-18 27 -49 47 -47 16 1 25 37 9 37 -4 0 -8 -7 -8 -15 0 -18 -12 -19 -28 -3
-17 17 -15 33 3 18 8 -7 15 -8 15 -4 0 5 -9 15 -20 22 -11 7 -20 17 -20 23 0
5 4 7 10 4 14 -8 52 14 44 26 -3 6 -12 8 -20 5 -8 -3 -14 -2 -14 3 0 16 13 20
34 10 20 -10 20 -10 2 5 -17 14 -17 16 -3 22 15 5 14 8 -5 23 -12 10 -18 23
-14 29 10 17 26 15 20 -2 -3 -8 -2 -16 3 -19 4 -3 8 8 8 23 1 16 -3 26 -7 24
-19 -12 -49 -12 -45 -1 2 7 12 12 23 12 11 0 18 6 16 14 -2 8 3 18 10 23 8 6
4 7 -12 2 -22 -6 -23 -5 -11 10 9 10 10 16 2 16 -6 0 -11 -5 -11 -11 0 -8 -5
-8 -15 1 -23 19 -18 27 15 25 17 -1 34 3 37 8 3 6 1 7 -5 3 -16 -10 -15 6 1
24 10 12 9 12 -5 1 -15 -11 -21 -11 -33 -1 -11 9 -15 9 -15 1 0 -7 -11 -23
-25 -37 -21 -21 -29 -23 -40 -14 -8 7 -15 17 -15 22 0 6 6 5 15 -2 18 -15 36
-4 28 17 -4 10 -2 14 4 10 13 -8 21 10 18 41 -1 17 2 21 14 16 9 -3 26 -8 39
-9 19 -3 21 -1 11 12 -10 12 -10 16 2 24 10 8 7 8 -11 3 -22 -6 -23 -5 -11 10
7 9 10 16 6 16 -4 0 -15 -10 -26 -22 -19 -23 -19 -23 -34 -4 -16 21 -20 37 -7
35 25 -4 34 2 23 15 -17 20 -23 58 -8 53 7 -2 11 -12 9 -21 -2 -9 4 -19 12
-22 9 -3 14 -9 11 -13 -2 -4 5 -7 17 -6 12 1 22 9 24 18 1 10 -1 15 -6 12 -4
-2 -8 6 -7 20 0 14 4 22 10 18 6 -3 7 -1 3 6 -12 20 -26 2 -22 -30 3 -23 0
-29 -11 -25 -8 3 -17 6 -19 6 -2 0 -4 5 -4 11 0 5 5 7 10 4 6 -3 10 -2 10 3 0
6 -7 12 -15 16 -8 3 -15 11 -15 17 0 8 4 8 15 -1 15 -12 21 -3 16 24 -1 5 6 5
16 2 14 -6 15 -4 6 5 -13 13 -37 3 -28 -12 4 -5 1 -9 -4 -9 -14 0 -14 23 1 38
8 8 17 8 32 1 20 -10 20 -10 2 5 -17 14 -17 16 -3 22 15 5 14 8 -5 23 -12 10
-18 23 -14 29 10 17 26 15 20 -2 -3 -8 -2 -16 3 -19 4 -3 8 8 8 23 1 23 -2 27
-16 20 -16 -9 -29 -4 -29 11 0 5 6 6 13 3 8 -3 19 1 25 9 9 10 9 14 -1 15 -6
0 -21 2 -32 4 -15 2 -19 -2 -18 -19 3 -27 -33 -51 -50 -34 -8 8 -5 11 11 11
12 0 22 5 22 10 0 6 -5 10 -10 10 -6 0 -2 10 9 22 11 11 18 25 15 30 -3 4 4 8
15 8 12 0 20 -5 18 -12 -1 -6 7 -13 18 -15 18 -3 18 -2 2 5 -10 4 -18 11 -18
15 3 21 0 28 -9 22 -11 -7 -14 8 -3 19 4 4 16 -3 26 -16 l18 -23 -11 24 c-10
19 -9 26 1 33 11 7 9 8 -4 4 -12 -4 -17 -2 -14 6 2 7 10 12 16 10 7 -1 10 1 7
6 -8 13 13 82 24 82 6 0 9 3 8 8 -1 4 11 34 27 67 16 33 29 62 30 65 6 18 38
90 51 113 8 15 12 27 8 27 -3 0 0 7 7 16 7 9 14 21 15 28 1 6 8 25 15 41 7 17
13 32 14 35 1 3 6 16 12 30 6 14 19 50 29 80 11 30 24 58 29 62 6 4 7 8 3 8
-4 0 0 19 8 43 15 41 22 63 23 81 1 4 8 5 17 2 8 -3 12 -2 9 4 -3 6 -2 10 4
10 5 0 13 -5 16 -11 7 -11 42 30 37 44 -3 9 12 9 21 0 4 -3 0 -14 -8 -23 -13
-14 -13 -17 0 -17 8 0 12 4 9 9 -8 12 29 6 39 -7 5 -6 7 -4 4 5 -2 8 -9 14
-14 13 -5 -1 -14 7 -21 18 -7 10 -8 19 -3 19 6 0 12 -4 16 -10 3 -5 13 -6 22
-3 9 4 14 2 10 -3 -3 -6 -2 -15 2 -22 5 -9 13 -7 29 8 22 21 37 27 27 10 -3
-5 -1 -10 5 -10 7 0 10 6 7 14 -4 10 0 14 14 13 20 -1 27 -17 8 -17 -7 0 0 -9
15 -21 14 -11 30 -18 35 -15 13 8 7 71 -7 69 -14 -3 -16 13 -3 22 16 9 38 -34
35 -68 -3 -21 -1 -27 5 -18 7 11 10 10 18 -4 9 -16 10 -16 16 0 4 9 11 13 17
10 6 -4 7 -12 4 -18 -4 -7 4 -2 18 11 29 26 46 29 27 5 -13 -16 -12 -17 3 -5
11 9 18 10 23 2 3 -5 1 -10 -6 -10 -7 0 -10 -3 -6 -6 3 -3 11 -3 17 1 8 5 6
13 -6 26 -19 21 -6 27 15 7 10 -11 11 -10 6 5 -4 9 -13 17 -21 17 -8 0 -14 5
-14 11 0 6 9 8 23 4 19 -5 20 -4 4 5 -21 13 -41 4 -33 -16 3 -8 2 -14 -3 -14
-18 0 -20 15 -6 37 9 13 11 23 5 23 -5 0 -10 -4 -10 -9 0 -6 -10 -8 -21 -6
-24 5 -62 35 -54 43 3 3 14 -3 24 -12 15 -13 24 -15 39 -7 14 7 24 6 39 -4 32
-22 38 7 7 36 -27 26 -24 41 4 16 18 -16 19 -16 16 5 -1 13 -3 23 -4 23 -1 0
-3 15 -4 33 -1 17 2 32 6 32 4 0 8 5 8 11 0 6 -5 7 -12 2 -7 -4 -29 -8 -49 -9
-29 -1 -43 5 -64 28 -26 28 -28 58 -3 58 8 0 9 -3 1 -11 -7 -7 -4 -17 14 -35
24 -24 39 -32 29 -15 -7 11 16 31 44 36 13 3 20 0 17 -8 -2 -7 -12 -12 -22
-12 -10 0 -20 -6 -22 -12 -3 -7 0 -13 7 -13 6 0 8 5 5 10 -3 6 -2 10 4 10 5 0
11 -5 13 -12 7 -21 26 1 23 27 -1 14 2 25 6 25 5 0 9 5 9 11 0 8 -5 8 -15 -1
-9 -8 -15 -9 -15 -2 0 6 4 13 9 16 5 4 8 17 6 31 -1 14 2 25 6 25 5 0 9 5 9
11 0 6 -5 7 -12 2 -7 -4 -24 -9 -38 -9 -46 -2 -51 -4 -45 -14 9 -14 -2 -12
-30 6 -13 9 -29 13 -35 9 -15 -9 -1 -28 16 -21 19 7 63 -33 69 -62 3 -15 0
-22 -8 -19 -7 2 -11 11 -9 19 1 9 -5 22 -14 29 -22 18 -64 19 -57 2 3 -7 10
-10 15 -7 6 4 8 1 6 -7 -3 -8 -10 -13 -16 -12 -8 2 -9 -5 -2 -21 8 -22 5 -36
-9 -36 -4 0 -6 26 -6 58 1 31 -4 64 -9 72 -6 8 -7 12 -2 8 5 -4 17 3 27 15 10
12 18 17 19 11 0 -7 7 -14 15 -18 18 -7 47 3 40 14 -7 11 18 30 45 35 13 3 20
0 17 -8 -2 -7 -12 -12 -22 -12 -10 0 -20 -6 -22 -12 -3 -7 0 -13 7 -13 6 0 8
5 5 10 -3 6 -2 10 4 10 5 0 11 -5 13 -12 7 -21 26 1 23 27 -1 14 2 25 6 25 5
0 9 5 9 11 0 8 -5 7 -15 -1 -14 -12 -15 -10 -11 13 3 19 1 24 -9 20 -8 -3 -13
-14 -12 -25 1 -12 -3 -23 -9 -25 -6 -2 -10 8 -9 25 1 22 -3 28 -19 30 -12 0
-16 -2 -9 -6 16 -10 26 -65 10 -59 -7 2 -11 11 -9 19 1 8 -8 23 -20 34 l-23
19 19 -23 c11 -12 17 -25 14 -28 -3 -3 -15 6 -26 20 -16 21 -21 23 -26 10 -4
-9 -2 -13 5 -8 7 4 10 1 7 -7 -3 -8 -10 -13 -16 -12 -8 2 -9 -5 -2 -21 8 -22
5 -36 -9 -36 -3 0 -7 62 -9 138 -2 75 -7 141 -13 147 -6 5 -9 5 -9 -2 0 -10
-47 -10 -57 1 -3 3 -14 1 -24 -5 -14 -7 -19 -6 -19 3 0 10 -2 10 -9 -1 -6 -10
-10 -10 -16 -1 -4 6 -14 9 -24 6 -9 -4 -5 2 8 12 17 14 20 21 12 27 -7 4 -10
13 -7 20 2 7 0 17 -6 23 -6 6 -6 12 3 17 8 6 10 4 4 -5 -5 -9 -4 -11 4 -6 9 6
9 11 0 22 -6 8 -8 14 -4 14 4 0 1 8 -6 17 -11 13 -11 15 -1 9 9 -6 12 -1 10
16 -2 12 -7 28 -11 35 -4 6 -2 15 4 19 8 5 9 3 4 -6 -5 -9 -4 -11 4 -6 9 6 9
11 0 22 -6 8 -8 14 -4 14 4 0 2 6 -4 14 -9 11 -9 16 0 22 8 5 9 3 4 -6 -5 -9
-4 -11 4 -6 9 6 9 11 1 21 -6 8 -11 22 -10 32 1 10 2 38 1 63 -1 33 -4 41 -11
30 -5 -8 -10 -10 -10 -4 0 5 5 15 12 22 8 8 8 15 -3 28 -9 12 -10 15 -1 10 6
-4 12 -3 12 3 0 5 -6 12 -12 14 -10 4 -10 6 0 6 8 1 10 6 5 13 -4 7 -9 31 -10
53 -2 21 -8 42 -14 46 -8 5 -8 9 0 13 6 4 8 13 4 19 -7 12 -10 23 -16 62 -2
11 -6 27 -9 35 -3 8 -12 38 -19 65 -6 28 -16 56 -22 63 -5 6 -7 12 -3 12 4 0
0 13 -8 29 -9 16 -12 31 -9 35 4 3 1 6 -5 6 -7 0 -11 3 -10 8 3 8 -72 164 -82
172 -4 3 -13 16 -20 29 -13 26 -24 40 -52 72 -10 10 -18 21 -18 23 0 13 -135
136 -150 136 -5 0 -10 5 -10 10 0 6 -7 10 -15 10 -8 0 -15 5 -15 10 0 6 -7 10
-15 10 -8 0 -15 5 -15 11 0 5 -4 7 -10 4 -5 -3 -10 -1 -10 5 0 6 -4 8 -10 5
-5 -3 -10 -2 -10 3 0 5 -8 12 -17 15 -10 3 -54 18 -98 34 -44 16 -95 29 -112
28 -18 0 -33 3 -33 7 0 5 -10 4 -21 -3 -12 -6 -19 -7 -15 -1 3 5 -5 12 -19 14
-18 4 -25 1 -25 -11 0 -13 -2 -13 -9 -2 -5 8 -14 10 -21 6 -8 -5 -11 -4 -7 2
4 6 0 14 -9 17 -8 3 -12 2 -9 -4 4 -6 -9 -8 -32 -6 -21 2 -46 -1 -57 -6 -13
-7 -16 -7 -12 1 4 6 2 11 -3 11 -6 0 -11 -3 -11 -7 0 -5 -21 -9 -48 -10 -66
-3 -121 -12 -143 -24 -11 -5 -19 -7 -19 -5 0 3 -37 -8 -82 -25 -46 -16 -87
-31 -93 -33 -5 -2 -27 -10 -47 -20 -21 -9 -42 -16 -48 -16 -5 0 -10 -5 -10
-10 0 -6 -3 -9 -7 -8 -5 0 -25 -6 -45 -16 -21 -9 -41 -16 -44 -15 -4 0 -10 -3
-13 -8 -3 -4 -19 -15 -36 -24 -113 -61 -151 -83 -155 -90 -10 -15 -70 -23 -70
-10 0 7 -4 10 -9 7 -5 -3 -12 1 -15 10 -4 9 -9 14 -12 11 -4 -3 -12 -1 -19 6
-7 7 -25 21 -41 32 -34 25 -68 53 -99 83 -13 12 -29 22 -35 22 -6 0 -8 5 -5
10 3 6 -2 10 -11 10 -10 0 -15 2 -12 5 3 3 -21 33 -53 67 -33 33 -59 65 -59
70 0 5 -4 6 -10 3 -5 -3 -10 -2 -10 4 0 6 -18 34 -40 63 -21 29 -37 54 -35 57
3 2 -1 11 -9 20 -17 21 -76 174 -76 200 0 11 -5 23 -11 26 -5 4 -8 12 -6 18 2
7 1 21 -4 33 -7 19 -16 68 -24 119 -1 11 -3 20 -5 20 -2 0 -7 36 -11 83 -2 17
-6 32 -9 32 -3 0 -5 10 -6 23 -2 50 -8 93 -13 102 -3 6 -6 19 -8 30 -12 110
-72 285 -128 370 -35 53 -112 135 -127 135 -4 0 -8 8 -8 17 0 9 -2 14 -5 11
-3 -3 -21 9 -39 26 -30 28 -124 99 -136 101 -19 4 -60 30 -60 37 0 5 -4 7 -9
3 -5 -3 -13 0 -16 5 -7 11 -51 33 -70 35 -5 0 -19 6 -31 12 -44 25 -188 72
-228 75 -14 1 -26 6 -26 11 0 5 -6 7 -14 4 -8 -3 -17 -3 -21 1 -4 4 -10 7 -13
8 -8 1 -121 17 -137 19 -5 1 -12 3 -15 4 -3 2 -25 4 -50 6 -25 2 -47 4 -50 5
-3 1 -21 2 -40 2 -19 0 -38 5 -42 11 -5 8 -8 9 -8 1 0 -11 -52 -10 -70 1 -5 3
-12 1 -15 -5 -5 -8 -11 -7 -21 1 -11 9 -17 9 -29 -1 -8 -7 -15 -8 -15 -3 0 5
-9 9 -20 10 -11 1 -18 -2 -16 -6 6 -9 -25 -8 -41 2 -7 5 -22 3 -34 -4 -15 -8
-19 -8 -15 0 4 6 3 11 -3 11 -5 0 -13 -5 -17 -11 -4 -8 -9 -7 -15 2 -7 12 -9
12 -9 0 0 -10 -3 -11 -13 -2 -8 6 -17 8 -20 5 -10 -10 -51 -11 -58 -2 -3 5 -9
5 -13 1z m4508 -3542 c16 -18 13 -51 -5 -51 -13 0 -11 17 4 24 6 3 2 3 -10 1
-24 -6 -38 8 -29 30 7 20 19 19 40 -4z m83 -85 c3 -3 3 -9 -1 -13 -4 -4 -10
-2 -14 4 -5 8 -12 8 -25 -2 -15 -10 -15 -14 -3 -18 8 -3 19 -14 25 -24 8 -15
6 -19 -10 -20 -11 -1 -17 3 -13 8 3 6 -1 18 -10 28 -22 24 -11 50 20 46 14 -1
28 -5 31 -9z m-8 -25 c8 -5 9 -11 3 -15 -5 -3 -15 1 -22 9 -14 16 -3 20 19 6z
m-79 -16 c6 -8 9 -19 6 -24 -4 -5 -2 -12 4 -16 5 -3 10 -11 10 -17 0 -6 -6 -6
-15 2 -9 7 -14 18 -12 24 3 6 -2 19 -11 29 -8 9 -10 17 -5 17 6 0 16 -7 23
-15z m16 -122 c-2 -3 -16 3 -30 12 -14 9 -30 14 -36 10 -15 -9 -1 -27 17 -21
14 6 70 -41 60 -51 -8 -8 -43 14 -37 24 3 4 -7 8 -21 8 -14 1 -26 -5 -26 -12
0 -8 6 -9 18 -2 25 13 26 12 25 -13 0 -12 -7 -23 -14 -26 -7 -2 -10 2 -6 12 3
9 1 16 -4 16 -6 0 -9 -9 -7 -21 3 -15 0 -19 -10 -15 -10 3 -12 0 -9 -12 5 -14
2 -13 -12 3 -12 15 -15 16 -11 4 3 -9 0 -22 -6 -28 -16 -16 -32 -14 -18 3 6 8
10 20 9 27 -2 8 7 15 18 17 18 2 21 9 20 36 -1 18 -6 39 -11 47 -4 8 -5 11 0
7 5 -5 14 1 22 12 13 19 14 19 43 -7 17 -14 28 -28 26 -30z m71 3 c3 -3 3 -9
-1 -13 -4 -4 -10 -2 -14 4 -5 8 -12 7 -26 -3 -11 -8 -14 -14 -8 -14 7 0 12 -4
12 -10 0 -15 -17 -12 -24 5 -9 25 4 43 30 40 14 -1 28 -5 31 -9z m-7 -26 c8
-5 11 -10 6 -10 -5 0 -3 -7 4 -15 14 -17 0 -21 -17 -4 -8 8 -13 6 -17 -9 -6
-16 -14 -20 -39 -16 -23 2 -28 1 -17 -6 8 -5 27 -7 41 -5 18 3 32 -2 44 -15
10 -11 13 -20 7 -20 -6 0 -13 4 -16 9 -3 5 -17 9 -31 9 -13 0 -22 -4 -19 -9 9
-15 -6 -10 -23 6 -18 19 -39 14 -35 -8 2 -11 -4 -15 -23 -13 -14 2 -30 -3 -36
-10 -12 -15 -3 -38 12 -29 5 4 9 2 9 -4 0 -5 -5 -13 -11 -17 -8 -4 -7 -9 2
-15 7 -4 10 -11 7 -15 -4 -3 -14 0 -22 8 -11 12 -12 18 -3 27 10 10 0 16 -24
13 -4 -1 -6 10 -6 24 0 17 3 22 10 15 6 -6 16 -3 28 12 10 12 18 17 19 11 0
-7 17 4 37 23 21 18 39 29 41 24 2 -6 14 -4 28 6 14 9 23 22 20 29 -6 16 3 18
24 4z m-258 -44 c6 4 8 -1 4 -13 -9 -28 14 -45 37 -28 12 8 14 15 7 20 -5 3
-7 12 -3 18 4 7 0 6 -10 -2 -9 -7 -17 -9 -17 -3 0 13 24 22 36 14 18 -14 13
-39 -11 -62 -22 -21 -28 -22 -36 -10 -8 12 -9 12 -7 -4 2 -10 -1 -21 -7 -22
-6 -3 -10 19 -10 52 -1 31 1 52 3 45 2 -6 8 -8 14 -5z m-27 -44 c1 -25 -3 -41
-10 -39 -5 2 -10 19 -9 38 0 26 -4 35 -16 35 -10 0 -17 -7 -16 -15 1 -7 -5
-16 -12 -18 -7 -3 -10 1 -6 10 3 8 0 18 -6 22 -6 3 -10 3 -9 -2 3 -19 -2 -34
-10 -29 -5 3 -12 -1 -15 -9 -4 -12 -1 -14 12 -7 24 11 55 9 59 -4 2 -6 -11
-10 -29 -10 -23 1 -32 -3 -30 -13 2 -9 -3 -11 -14 -7 -14 5 -15 4 -4 -9 10
-12 15 -13 21 -3 4 6 6 15 4 19 -3 3 7 7 22 7 l27 0 -24 -21 c-14 -11 -24 -24
-22 -28 3 -14 -10 -10 -32 9 -21 17 -21 17 -2 -6 11 -12 16 -25 12 -29 -4 -4
-11 -1 -15 6 -6 9 -11 10 -15 2 -4 -6 -13 -11 -19 -11 -9 0 -8 3 1 8 7 5 14
17 16 28 2 10 9 32 15 47 6 16 9 32 6 37 -3 5 0 12 6 16 8 5 9 3 4 -6 -5 -8
-4 -11 3 -6 6 4 9 13 6 21 -5 12 4 14 47 12 l53 -2 1 -43z m63 16 c-2 -5 -8
-9 -13 -9 -5 0 -11 4 -13 9 -1 5 4 9 13 9 9 0 14 -4 13 -9z m-88 -18 c0 -5 -2
-10 -4 -10 -3 0 -8 5 -11 10 -3 6 -1 10 4 10 6 0 11 -4 11 -10z m232 -37 c9
-8 22 -12 27 -8 6 3 11 2 11 -4 0 -22 -24 -23 -41 -2 -10 12 -20 18 -22 14 -2
-5 9 -18 24 -31 16 -13 29 -18 29 -12 0 6 5 8 10 5 8 -5 7 -11 -1 -21 -9 -12
-14 -12 -20 -3 -6 10 -11 10 -25 -2 -16 -13 -17 -12 -11 5 5 13 1 25 -13 38
-11 10 -20 22 -20 27 0 13 34 9 52 -6z m-170 -11 c10 10 24 18 31 18 6 0 -4
-14 -23 -30 -38 -32 -51 -37 -47 -17 1 6 -6 12 -15 12 -22 0 -32 11 -23 25 4
7 15 4 32 -8 25 -18 27 -18 45 0z m148 -32 c0 -5 -4 -10 -10 -10 -5 0 -10 5
-10 10 0 6 5 10 10 10 6 0 10 -4 10 -10z m-680 -960 c12 -7 10 -9 -8 -7 -12 0
-22 5 -22 9 0 11 12 10 30 -2z m-16 -51 c-3 -6 2 -19 11 -29 16 -18 16 -19 -4
-17 -13 1 -20 6 -17 14 8 21 -14 26 -34 8 -11 -10 -24 -14 -32 -9 -9 5 -8 2 2
-10 16 -21 23 -76 9 -76 -5 0 -9 7 -9 15 0 8 -4 15 -10 15 -5 0 -6 -8 -3 -17
6 -16 5 -16 -10 -4 -21 17 -22 50 -2 57 8 4 13 9 10 14 -2 4 3 16 11 26 14 18
15 18 10 1 -5 -15 0 -14 26 7 30 23 56 26 42 5z m-25 -36 c-16 -20 -18 -41 -5
-62 10 -16 -29 -55 -45 -45 -15 9 -10 22 9 20 13 -1 17 7 17 39 0 43 9 65 27
65 7 0 6 -7 -3 -17z m31 -23 c0 -8 -22 -30 -30 -30 -3 0 -6 9 -6 19 0 13 7 19
18 18 10 -1 18 -4 18 -7z m-99 -72 c13 -17 16 -28 8 -23 -7 5 -23 8 -34 7 -17
-2 -18 -1 -5 8 11 9 12 13 3 17 -7 2 -13 9 -13 14 0 19 19 8 41 -23z m9 -37
c0 -4 -10 -7 -22 -5 -34 4 -35 5 -13 13 21 9 35 5 35 -8z m34 5 c-3 -8 -1 -17
5 -21 17 -10 13 -21 -7 -22 -13 -1 -17 5 -16 25 2 32 2 32 14 32 5 0 7 -6 4
-14z m-24 -29 c0 -5 -7 -6 -16 -3 -8 3 -12 2 -9 -4 7 -12 3 -12 -19 -4 -26 10
-18 20 14 20 17 0 30 -4 30 -9z m-40 -28 c0 -8 6 -7 16 2 14 12 19 10 39 -15
31 -39 27 -95 -9 -96 -4 0 -1 11 8 24 11 18 12 26 3 29 -6 2 -12 12 -12 23 0
10 -7 19 -15 19 -8 0 -14 -8 -13 -18 1 -12 -4 -17 -14 -13 -8 3 -11 1 -8 -4 3
-6 1 -10 -4 -10 -6 0 -11 7 -11 15 0 8 5 15 10 15 6 0 10 5 10 11 0 5 -4 8 -8
5 -5 -3 -9 1 -9 9 0 8 4 15 9 15 4 0 8 -5 8 -11z m40 -29 c0 -5 -4 -10 -10
-10 -5 0 -10 5 -10 10 0 6 5 10 10 10 6 0 10 -4 10 -10z m97 -27 c-8 -7 -37 9
-31 19 3 5 12 4 20 -3 8 -6 13 -14 11 -16z m-92 -3 c3 -5 2 -18 -4 -27 -7 -13
-5 -23 6 -35 9 -10 11 -18 6 -18 -6 0 -16 7 -23 15 -7 9 -21 13 -31 10 -11 -4
-19 -2 -19 4 0 11 13 15 39 12 7 -2 10 3 6 9 -4 6 -13 9 -20 6 -24 -9 -26 8
-3 21 28 15 35 16 43 3z m-35 -75 c-7 -8 -17 -15 -22 -15 -6 0 -5 7 2 15 7 8
17 15 22 15 6 0 5 -7 -2 -15z m110 5 c0 -5 -4 -10 -10 -10 -5 0 -10 5 -10 10
0 6 5 10 10 10 6 0 10 -4 10 -10z m-91 -34 c10 -11 8 -16 -9 -21 -18 -6 -19
-9 -8 -23 11 -14 10 -15 -7 -8 -15 5 -17 4 -8 -5 15 -15 34 -3 26 19 -6 15 -5
15 11 2 17 -13 17 -15 -4 -32 -12 -10 -27 -15 -34 -11 -6 3 -6 1 2 -8 9 -10
15 -10 24 -1 17 17 24 15 25 -7 1 -12 -3 -18 -10 -16 -7 3 -19 0 -27 -5 -13
-9 -13 -11 0 -20 8 -5 21 -8 28 -5 15 6 16 -7 0 -23 -9 -9 -15 -7 -25 6 -12
15 -13 14 -2 -7 9 -20 9 -23 -3 -18 -8 3 -15 -1 -15 -8 0 -7 6 -11 12 -8 8 2
12 -5 11 -19 -1 -14 -8 -24 -21 -26 -17 -3 -17 -1 -5 7 10 8 12 13 4 19 -13 9
-14 72 -1 72 5 0 4 7 -3 15 -9 11 -9 15 -1 15 7 0 9 5 4 13 -14 21 -10 71 7
84 8 6 12 15 7 19 -4 4 -7 2 -7 -5 0 -7 -5 -9 -11 -5 -8 4 -7 9 2 15 19 12 25
11 38 -5z m86 -26 c16 -16 24 -30 17 -30 -6 0 -18 10 -26 22 -9 12 -16 17 -16
11 0 -7 5 -15 10 -18 6 -4 8 -11 5 -16 -9 -14 -21 -11 -23 6 -1 8 -3 22 -4 30
-1 10 -5 12 -11 6 -7 -7 -6 -15 3 -26 10 -12 10 -15 -1 -15 -7 0 -2 -8 11 -17
14 -10 29 -17 33 -15 5 1 5 -2 2 -8 -4 -6 1 -20 11 -31 9 -10 13 -19 7 -19 -5
0 -19 -17 -31 -39 -12 -21 -33 -46 -47 -55 -19 -12 -24 -23 -20 -37 4 -11 2
-19 -4 -19 -6 0 -10 6 -8 13 1 6 -5 13 -13 13 -8 1 -19 2 -25 3 -5 1 1 7 15
14 17 9 25 21 25 38 0 26 20 59 35 59 5 0 7 -8 5 -17 -2 -10 -4 -24 -4 -32 -1
-8 -7 -11 -18 -6 -15 5 -16 4 -5 -7 11 -11 16 -10 28 7 8 11 12 26 9 33 -3 10
0 12 10 9 8 -4 17 -1 21 5 4 6 3 8 -3 5 -6 -4 -22 2 -34 12 -23 19 -23 20 -6
38 17 17 18 17 15 -7 -2 -19 2 -25 19 -26 23 -1 22 7 -4 38 -8 9 -21 14 -28
12 -8 -3 -12 3 -11 18 1 13 -2 29 -8 37 -7 9 -5 17 9 27 25 19 27 18 60 -16z
m-75 -100 c0 -5 -4 -10 -10 -10 -5 0 -10 5 -10 10 0 6 5 10 10 10 6 0 10 -4
10 -10z m60 0 c0 -5 -4 -10 -10 -10 -5 0 -10 5 -10 10 0 6 5 10 10 10 6 0 10
-4 10 -10z m30 -80 c-18 -12 -30 -13 -30 -2 0 4 10 9 22 9 18 2 20 0 8 -7z
m-112 -78 c-1 -4 12 -22 30 -41 18 -18 32 -36 32 -40 0 -3 -11 -19 -24 -36
-20 -25 -26 -28 -40 -16 -9 7 -16 10 -17 5 0 -5 -2 -17 -4 -26 -2 -10 1 -18 7
-18 6 0 7 7 4 16 -5 12 -2 15 10 10 8 -3 18 -6 20 -6 2 0 4 -5 4 -11 0 -5 -4
-7 -10 -4 -5 3 -7 0 -4 -8 3 -9 -2 -13 -18 -12 -19 1 -23 8 -24 38 -1 20 2 34
7 31 5 -3 9 0 9 5 0 6 -6 11 -12 12 -10 0 -10 2 0 6 6 2 12 9 12 14 0 6 -4 7
-10 4 -5 -3 -10 -1 -10 4 0 6 5 11 10 11 6 0 10 5 10 11 0 5 -4 8 -8 5 -5 -3
-9 1 -9 9 0 8 4 15 9 15 4 0 8 -5 8 -11 0 -5 5 -7 12 -3 8 5 5 11 -10 17 -27
12 -28 22 -2 24 11 1 19 -1 18 -5z m102 -82 c0 -5 -4 -10 -10 -10 -5 0 -10 5
-10 10 0 6 5 10 10 10 6 0 10 -4 10 -10z m-55 -70 c3 -5 12 -7 19 -4 14 5 43
-23 33 -33 -4 -3 -2 -12 5 -20 9 -11 8 -18 -5 -31 -10 -9 -17 -11 -17 -5 0 6
3 13 8 16 4 2 2 2 -5 1 -6 -2 -11 6 -10 17 1 10 5 19 10 19 5 0 4 6 -3 14 -12
16 -40 11 -40 -6 0 -6 6 -6 14 2 12 9 15 8 13 -9 -1 -15 -6 -20 -17 -15 -8 3
-20 7 -27 7 -8 0 -9 6 -2 19 5 10 7 23 4 28 -3 6 -2 10 4 10 5 0 12 -4 16 -10z
m-40 -49 c0 -2 9 -4 20 -6 23 -4 57 -43 52 -58 -2 -6 -9 -13 -17 -15 -7 -3
-10 0 -6 6 10 17 -13 54 -30 48 -7 -3 -18 3 -23 12 -6 9 -10 13 -10 7 0 -5 6
-19 14 -29 22 -29 18 -45 -4 -19 -18 21 -19 22 -24 3 -3 -13 -1 -17 10 -13 13
5 13 2 4 -15 -17 -33 -26 -27 -26 17 0 22 3 37 7 35 5 -3 8 0 8 5 0 6 -4 11
-10 11 -5 0 -10 4 -10 9 0 4 10 7 23 6 12 -1 22 -3 22 -4z m38 -50 c2 -10 0
-26 -5 -35 -5 -9 -6 -21 -3 -26 3 -6 2 -10 -3 -10 -15 0 -21 25 -11 41 5 8 6
22 3 32 -3 9 -1 17 4 17 5 0 12 -8 15 -19z m-36 -35 c-9 -22 15 -45 43 -42 14
1 32 -2 40 -8 12 -8 13 -8 3 4 -20 22 -15 35 6 16 16 -14 17 -21 8 -31 -7 -8
-16 -9 -23 -4 -6 5 -21 7 -34 4 -27 -5 -56 14 -54 35 3 33 4 40 10 40 3 0 4
-6 1 -14z m74 -10 c-12 -7 -18 -16 -14 -20 4 -5 2 -7 -6 -4 -24 7 -23 22 1 34
30 14 47 4 19 -10z m-94 -36 c1 -11 -2 -18 -7 -15 -4 3 -7 -3 -6 -12 3 -21 55
-29 62 -10 2 7 14 13 25 14 17 2 18 -1 9 -12 -7 -8 -20 -17 -31 -20 -10 -4
-19 -13 -19 -21 0 -8 -5 -12 -10 -9 -6 4 -8 11 -5 16 4 5 1 9 -4 9 -6 0 -10
-10 -8 -21 1 -12 -3 -24 -9 -26 -7 -2 -10 6 -9 22 2 14 -1 23 -6 19 -5 -3 -9
0 -9 5 0 6 -10 9 -22 7 -13 -3 -27 -5 -32 -5 -5 -1 -3 -7 4 -15 9 -12 8 -15
-9 -13 -13 1 -20 6 -17 14 8 21 -8 15 -22 -8 -7 -12 -16 -18 -19 -15 -3 3 0
12 7 21 7 8 10 15 6 15 -3 0 -9 0 -13 0 -5 0 -8 -12 -8 -27 -1 -15 -5 -28 -11
-30 -9 -3 -11 31 -5 67 1 3 27 5 59 4 72 -1 92 8 86 41 -3 16 0 25 9 25 7 0
13 -9 14 -20z m32 -24 c9 -11 6 -13 -14 -13 -20 0 -23 2 -14 13 6 8 13 14 14
14 1 0 8 -6 14 -14z m-239 -31 c0 -5 5 -3 10 5 9 13 10 13 11 0 0 -8 2 -25 3
-38 2 -13 -2 -21 -8 -19 -6 2 -10 11 -10 20 1 9 -4 13 -13 10 -8 -3 -13 0 -11
8 2 7 -6 14 -18 15 -18 1 -21 -4 -19 -33 1 -20 -2 -32 -9 -30 -6 2 -10 17 -11
33 0 17 -5 29 -12 28 -29 -2 -33 -5 -33 -17 0 -7 -10 -13 -22 -14 -23 -2 -23
-2 -3 14 16 12 16 14 3 10 -10 -3 -20 -2 -23 4 -9 14 -27 -1 -21 -17 3 -8 1
-14 -4 -14 -13 0 -21 16 -15 32 6 16 205 20 205 3z m-165 -15 c3 -5 1 -10 -4
-10 -6 0 -11 5 -11 10 0 6 2 10 4 10 3 0 8 -4 11 -10z m80 -15 c-1 -14 2 -28
6 -31 17 -10 9 -20 -16 -19 -14 0 -30 7 -35 15 -14 22 -12 26 11 27 17 2 18
-1 9 -13 -8 -8 -8 -14 -2 -14 14 0 23 28 11 35 -10 7 -3 25 11 25 4 0 7 -11 5
-25z m61 17 c-7 -11 4 -25 42 -51 18 -12 30 -27 27 -32 -4 -5 -2 -9 4 -9 5 0
11 5 13 12 3 7 10 8 17 4 9 -6 5 -13 -15 -27 -15 -10 -33 -15 -38 -11 -15 9
-65 11 -71 2 -2 -4 -19 -5 -37 -3 -18 2 -41 4 -50 5 -19 2 -22 9 -10 24 4 5 3
6 -2 2 -15 -12 -42 -9 -54 5 -9 10 -7 19 4 35 21 30 30 28 56 -12 12 -19 31
-40 43 -47 18 -11 19 -11 6 5 -8 9 -10 20 -6 24 4 4 10 1 12 -5 3 -7 9 -13 14
-13 6 0 8 4 4 9 -8 14 34 40 54 34 13 -4 13 -3 2 5 -8 6 -19 8 -26 6 -7 -3
-11 4 -9 18 3 29 2 28 15 28 5 0 8 -4 5 -8z m204 -12 c5 -8 7 -17 4 -21 -2 -4
0 -10 5 -14 12 -6 77 31 73 42 -2 4 2 9 8 11 9 3 9 -1 1 -16 -6 -10 -7 -22 -4
-26 4 -3 -3 -15 -14 -25 -14 -14 -24 -16 -31 -9 -12 12 -35 1 -27 -13 4 -5 4
-9 1 -9 -2 0 -13 -3 -23 -7 -17 -7 -17 -6 -1 19 14 22 15 27 3 32 -9 3 -12 0
-9 -8 3 -7 -2 -13 -11 -13 -10 0 -14 6 -10 16 5 12 3 13 -6 4 -13 -13 -3 -37
12 -28 5 4 9 1 9 -4 0 -15 -25 -14 -38 2 -15 18 12 59 33 51 8 -4 15 -1 15 5
0 6 -5 10 -11 9 -6 -2 -13 2 -16 9 -6 16 27 10 37 -7z m148 4 c-13 -13 -14
-22 -6 -40 6 -13 16 -24 21 -24 5 0 4 -6 -2 -14 -6 -8 -11 -18 -10 -22 3 -19
-1 -37 -8 -30 -4 3 -8 26 -8 50 -1 23 -5 48 -9 55 -8 13 10 41 27 41 6 0 4 -7
-5 -16z m-208 -22 c0 -2 -4 -12 -10 -22 -7 -13 -6 -21 5 -30 20 -17 19 -31 -2
-24 -15 5 -15 4 -3 -4 10 -8 18 -8 27 -1 12 11 33 4 33 -10 0 -10 -52 -7 -69
3 -6 4 -9 16 -6 26 6 18 -19 35 -36 24 -15 -9 -10 8 7 27 13 15 54 23 54 11z
m-275 -82 c3 -5 12 -7 19 -4 8 3 16 2 19 -3 3 -4 -15 -8 -39 -9 -35 -1 -42 2
-33 13 13 15 26 17 34 3z m355 -11 c0 -5 -4 -9 -10 -9 -5 0 -10 7 -10 16 0 8
5 12 10 9 6 -3 10 -10 10 -16z m75 12 c3 -5 1 -12 -5 -16 -5 -3 -10 1 -10 9 0
18 6 21 15 7z m-4951 -1737 c3 -8 2 -12 -4 -9 -6 3 -10 10 -10 16 0 14 7 11
14 -7z m66 7 c0 -5 -7 -12 -16 -15 -14 -5 -15 -4 -4 9 14 17 20 19 20 6z m55
-1 c-3 -5 -12 -10 -18 -10 -7 0 -6 4 3 10 19 12 23 12 15 0z"/>
<path d="M8535 7600 c-3 -5 -1 -10 4 -10 6 0 11 5 11 10 0 6 -2 10 -4 10 -3 0
-8 -4 -11 -10z"/>
<path d="M7740 6078 c0 -4 7 -8 15 -8 8 0 15 4 15 8 0 5 -7 9 -15 9 -8 0 -15
-4 -15 -9z"/>
<path d="M7747 5433 c-2 -4 -3 -21 -3 -38 1 -45 31 -41 31 4 0 32 -17 53 -28
34z m23 -13 c0 -5 -4 -10 -10 -10 -5 0 -10 5 -10 10 0 6 5 10 10 10 6 0 10 -4
10 -10z m0 -40 c0 -5 -4 -10 -10 -10 -5 0 -10 5 -10 10 0 6 5 10 10 10 6 0 10
-4 10 -10z"/>
<path d="M7344 5029 c-10 -17 13 -36 27 -22 12 12 4 33 -11 33 -5 0 -12 -5
-16 -11z m26 -9 c0 -5 -4 -10 -10 -10 -5 0 -10 5 -10 10 0 6 5 10 10 10 6 0
10 -4 10 -10z"/>
<path d="M7485 5012 c-9 -9 -6 -22 6 -22 5 0 7 5 4 10 -3 6 -2 10 4 10 5 0 12
-6 15 -12 5 -10 7 -10 12 0 3 6 10 12 15 12 6 0 7 -4 4 -10 -3 -5 -1 -10 5
-10 7 0 10 6 8 12 -4 12 -62 20 -73 10z"/>
<path d="M7610 5040 c0 -5 5 -10 11 -10 5 0 7 5 4 10 -3 6 -8 10 -11 10 -2 0
-4 -4 -4 -10z"/>
<path d="M8366 7124 c-11 -8 -15 -14 -9 -14 7 0 15 4 18 10 6 10 54 8 76 -5
11 -6 11 -5 2 5 -17 18 -65 21 -87 4z"/>
<path d="M13180 6925 c0 -6 -28 -10 -67 -10 -38 1 -72 -1 -78 -4 -5 -3 -26 -5
-45 -6 -19 -1 -40 -4 -45 -7 -13 -7 -93 -21 -99 -16 -2 1 -14 -6 -27 -17 -13
-12 -19 -14 -14 -5 7 12 6 13 -7 3 -8 -7 -18 -10 -21 -6 -4 3 -7 0 -7 -7 0 -7
-3 -10 -6 -7 -4 3 -16 1 -28 -5 -11 -7 -25 -11 -30 -10 -5 2 -12 -1 -15 -6 -3
-5 -31 -22 -61 -38 -30 -16 -65 -37 -77 -48 -11 -10 -23 -17 -25 -15 -3 4
-144 -135 -168 -166 -9 -11 -26 -38 -40 -60 -13 -22 -26 -42 -30 -45 -11 -10
-60 -119 -60 -134 0 -9 -5 -16 -12 -16 -6 0 -9 -3 -5 -6 3 -4 0 -21 -8 -39 -7
-19 -11 -36 -8 -39 3 -2 1 -10 -3 -17 -7 -13 -10 -25 -18 -99 -5 -36 -9 -151
-6 -160 1 -3 3 -25 5 -50 9 -96 15 -127 34 -178 11 -29 20 -55 20 -57 1 -5 2
-7 5 -22 5 -18 42 -89 49 -94 5 -3 8 -10 8 -15 -2 -38 233 -294 271 -294 5 0
6 -4 3 -10 -3 -5 1 -10 9 -10 9 0 16 -5 16 -11 0 -8 5 -7 15 1 13 11 14 10 9
-5 -5 -11 -1 -21 10 -27 9 -5 13 -15 9 -21 -3 -7 3 -4 14 6 20 17 23 18 47 2
14 -9 30 -14 36 -10 6 4 9 1 8 -6 -2 -7 4 -14 12 -15 8 0 17 -2 20 -3 8 -4 44
-12 57 -13 7 -1 10 -5 8 -9 -3 -4 7 -7 23 -8 55 -1 62 -2 62 -13 0 -6 -3 -8
-7 -5 -3 4 -13 2 -20 -5 -8 -7 -22 -13 -31 -14 -10 0 -21 -2 -27 -4 -20 -5
-45 0 -45 9 0 5 12 9 28 10 66 1 68 1 52 11 -8 5 -18 6 -22 3 -5 -2 -17 1 -26
9 -15 11 -15 11 -5 -3 11 -13 9 -16 -17 -16 -29 0 -29 1 -13 19 15 16 15 18 1
13 -9 -4 -19 -1 -23 4 -3 6 -11 9 -16 5 -6 -3 -20 2 -32 13 -19 15 -20 16 -8
1 8 -11 9 -18 3 -18 -12 0 -27 19 -27 34 0 5 -7 11 -15 13 -9 3 -11 1 -5 -4
13 -11 17 -33 6 -33 -5 0 -12 5 -14 10 -3 6 -4 5 -3 -2 2 -7 10 -13 20 -13 9
0 21 -6 25 -14 5 -7 11 -9 14 -4 9 14 50 9 55 -7 3 -9 0 -10 -9 -4 -8 4 -3 -5
11 -22 25 -30 30 -33 70 -36 15 -2 18 -7 14 -22 -6 -19 -6 -19 11 -2 12 11 21
14 28 7 11 -11 37 -4 37 11 0 7 -5 6 -13 -1 -11 -8 -14 -5 -14 17 0 26 3 29
36 28 20 -1 39 3 43 9 5 6 8 5 8 -4 0 -10 3 -11 14 -2 9 8 16 8 20 2 4 -5 20
-8 36 -6 21 3 30 0 30 -10 0 -9 -10 -12 -32 -9 -27 4 -30 2 -15 -6 9 -6 22 -8
27 -5 6 3 10 2 10 -4 0 -19 -20 -22 -44 -6 -16 11 -23 23 -19 33 4 14 3 14 -5
3 -6 -8 -27 -14 -52 -14 -25 0 -36 -3 -28 -8 18 -12 19 -52 1 -45 -8 4 -11 1
-8 -5 4 -6 14 -8 22 -5 11 4 13 1 8 -15 -5 -14 -3 -20 7 -18 28 3 39 -1 31
-13 -4 -7 5 -5 20 5 24 16 28 16 33 2 5 -11 10 -13 19 -5 7 6 19 8 27 5 17 -7
53 29 43 44 -3 6 -2 11 4 11 24 0 20 -22 -8 -51 -31 -31 -43 -51 -17 -30 8 7
16 8 18 4 3 -4 3 -3 2 4 -2 6 6 11 17 10 17 -1 23 -10 20 -29 0 -5 4 -8 10 -8
6 0 9 6 6 14 -3 8 1 20 9 26 12 10 13 7 10 -18 -2 -23 0 -29 11 -25 8 3 10 10
6 17 -12 17 -10 49 4 53 8 3 11 -4 8 -18 -2 -12 2 -31 10 -43 8 -11 15 -16 15
-11 0 6 11 11 25 11 14 1 23 -1 21 -5 -8 -12 42 -7 55 6 6 6 19 9 28 6 11 -4
10 -1 -4 10 -20 16 -20 16 3 14 12 -1 22 -6 22 -13 0 -6 8 -18 17 -25 11 -10
14 -10 9 -1 -7 11 13 18 39 12 40 -9 53 -6 47 9 -5 14 -4 14 14 1 17 -14 18
-14 6 2 -8 9 -11 22 -7 28 9 15 25 12 19 -3 -3 -8 3 -20 12 -28 16 -13 16 -12
6 7 -6 12 -8 24 -5 28 4 4 8 44 8 89 1 110 15 133 48 78 9 -15 13 -31 10 -35
-4 -4 -7 -24 -8 -46 -1 -32 1 -37 13 -28 11 10 13 8 10 -8 -2 -13 2 -19 15
-18 10 1 16 -3 14 -10 -5 -13 -39 -9 -50 7 -5 7 -6 4 -2 -8 4 -11 8 -29 7 -40
0 -11 2 -14 5 -7 3 6 10 9 16 5 7 -4 6 1 -2 10 -15 19 -2 24 16 6 18 -18 32
-1 28 32 -2 20 0 29 8 26 7 -2 11 -12 9 -22 -2 -10 1 -14 7 -10 6 3 11 12 11
18 0 13 -40 43 -52 39 -5 -1 -8 2 -8 6 0 20 14 20 41 0 23 -18 32 -19 42 -9
10 10 8 11 -8 5 -18 -7 -18 -6 -7 9 8 8 19 14 26 11 12 -5 20 -44 8 -43 -19 3
-32 -2 -32 -12 0 -8 5 -8 15 1 9 7 15 8 15 2 0 -5 -15 -19 -32 -31 -18 -11
-28 -21 -23 -21 6 1 19 7 29 15 10 8 23 12 29 8 6 -3 7 -1 4 4 -4 6 1 20 11
32 19 24 66 38 59 18 -2 -7 -10 -12 -18 -12 -8 0 -15 -4 -16 -9 -1 -5 -7 -13
-15 -18 -10 -8 -10 -9 2 -5 8 2 14 10 12 17 -2 7 3 10 12 7 9 -4 18 -2 21 4 4
5 11 6 17 3 7 -5 9 -1 5 9 -3 9 1 18 9 21 22 9 26 7 18 -6 -4 -7 -3 -8 4 -4 6
4 9 13 6 21 -5 12 -9 12 -28 0 -22 -15 -36 -11 -36 7 0 5 5 6 11 3 5 -4 19 1
29 10 14 13 17 28 15 66 -2 40 1 52 16 62 10 6 19 16 19 21 0 4 -8 2 -17 -5
-15 -12 -16 -12 -10 4 4 10 7 21 7 23 0 3 9 0 20 -6 15 -8 19 -18 15 -37 -2
-15 1 -33 7 -40 13 -16 -3 -18 -19 -2 -6 6 -9 19 -6 28 4 9 2 13 -3 8 -13 -12
-15 -137 -3 -137 6 0 7 4 4 10 -7 11 19 65 36 75 15 10 7 -28 -10 -41 -7 -6
-11 -19 -8 -30 4 -16 5 -15 6 5 1 18 4 21 14 13 9 -8 12 -3 12 21 0 18 -4 38
-8 45 -11 16 3 15 26 -2 18 -14 24 -32 8 -21 -6 3 -9 -4 -8 -15 1 -20 2 -20
14 -4 7 10 13 22 13 27 0 5 8 3 17 -4 9 -8 14 -9 10 -2 -4 6 4 20 19 32 15 12
22 21 17 21 -5 0 -14 -5 -20 -11 -8 -8 -11 -4 -10 15 2 30 2 29 27 16 15 -8
18 -7 14 3 -6 16 41 61 55 53 7 -5 8 -1 4 10 -5 13 -3 15 8 9 8 -4 11 -4 6 0
-10 12 -68 14 -89 4 -11 -6 -24 -2 -40 11 l-23 20 22 19 c15 12 33 17 54 15
42 -5 48 -12 25 -29 -17 -13 -16 -14 10 -11 16 1 35 -2 43 -8 11 -8 13 -8 8 0
-4 7 0 17 8 24 14 11 14 15 -1 31 -19 21 -12 24 18 8 14 -8 18 -8 14 0 -4 6
-2 19 3 30 9 17 8 19 -15 16 -14 -1 -23 2 -21 8 2 6 16 11 32 12 19 0 29 6 31
18 1 9 -2 17 -7 17 -5 0 -9 5 -9 11 0 5 4 7 10 4 6 -4 7 1 3 12 -6 16 -5 17
12 3 17 -14 17 -14 4 8 -8 12 -19 20 -26 18 -7 -3 -22 4 -35 14 -13 11 -18 19
-12 20 6 0 14 -3 18 -7 4 -4 21 -8 38 -9 17 -1 25 1 18 6 -6 4 -11 11 -10 16
1 5 -3 10 -9 12 -6 2 -11 -3 -11 -12 0 -9 -5 -16 -11 -16 -5 0 -8 4 -5 9 3 4
-5 7 -17 6 -12 -1 -32 4 -44 12 -14 8 -23 9 -23 3 0 -5 4 -10 8 -10 5 0 9 -6
9 -14 0 -8 -9 -14 -19 -13 -10 1 -16 7 -14 13 3 7 -1 17 -7 22 -8 7 -17 3 -30
-14 -16 -21 -16 -25 -3 -30 9 -3 16 -10 16 -16 0 -5 -4 -6 -10 -3 -5 3 -10 1
-10 -5 0 -7 7 -9 16 -6 10 4 14 2 11 -6 -2 -7 -10 -12 -16 -11 -6 2 -11 -2
-11 -7 0 -6 5 -10 10 -10 6 0 10 -5 10 -11 0 -5 -4 -7 -10 -4 -5 3 -10 1 -10
-5 0 -7 6 -10 13 -7 6 2 12 12 12 22 0 10 5 20 12 22 16 6 6 -49 -10 -59 -18
-11 1 -10 23 2 14 7 24 5 42 -10 22 -18 23 -19 4 -37 -18 -17 -18 -17 -12 4 8
24 -5 36 -27 27 -9 -3 -14 -15 -12 -30 1 -15 -2 -23 -9 -21 -6 2 -10 12 -9 22
1 10 -5 24 -13 32 -8 8 -14 11 -14 6 0 -5 5 -14 12 -21 9 -9 9 -12 1 -12 -7 0
-15 6 -20 13 -11 17 -12 169 -1 183 5 7 8 16 7 20 -1 5 3 21 9 35 5 14 12 39
15 55 3 16 6 34 7 39 1 6 2 15 1 20 -1 12 -510 13 -530 1 -7 -5 -16 -5 -20 0
-9 13 -31 16 -32 4 -1 -6 -2 -13 -3 -17 -1 -5 -5 -22 -9 -39 -7 -25 -107 -147
-107 -129 0 3 -10 0 -22 -7 -13 -7 -25 -13 -28 -14 -3 0 -12 -4 -20 -7 -30
-13 -106 -23 -165 -22 -66 2 -147 23 -139 36 3 5 -4 9 -15 9 -26 0 -49 33 -45
65 2 20 -1 23 -14 16 -17 -10 -62 6 -62 21 0 5 5 6 10 3 6 -3 10 -1 10 4 0 6
-9 11 -21 11 -16 0 -19 4 -14 21 5 14 3 19 -3 15 -6 -3 -14 -1 -18 5 -4 7 -3
9 4 5 5 -3 12 -1 14 6 2 6 14 12 26 13 13 1 21 -3 19 -9 -2 -6 -11 -11 -18
-10 -8 1 -15 -7 -15 -16 0 -9 7 -17 16 -16 9 1 15 -7 14 -21 0 -18 4 -21 30
-17 17 2 32 8 34 14 2 6 9 7 14 4 7 -4 8 -2 4 4 -5 9 -14 7 -32 -4 -29 -20
-33 -17 -38 24 -3 31 18 77 33 68 4 -3 13 0 21 5 12 8 11 9 -4 7 -10 -2 -21 3
-23 10 -3 7 -1 12 4 11 27 -5 35 1 23 16 -10 11 -10 18 -1 29 9 11 9 15 -1 19
-10 4 -10 8 2 17 13 10 12 11 -3 6 -15 -5 -17 -2 -11 16 5 16 3 20 -9 15 -8
-3 -23 0 -33 7 -15 12 -20 10 -36 -8 -9 -11 -17 -16 -18 -10 0 5 9 20 20 32
12 12 18 22 14 22 -4 0 -17 -11 -29 -24 -16 -18 -20 -27 -12 -35 8 -8 8 -11 0
-11 -6 0 -18 10 -27 23 -14 18 -13 16 1 -12 14 -26 15 -35 5 -38 -8 -3 -5 -11
10 -24 24 -19 15 -26 -12 -9 -17 11 -23 52 -6 44 6 -3 4 0 -4 8 -9 7 -15 30
-15 53 -1 38 8 55 30 55 6 0 3 -5 -5 -10 -8 -5 -10 -10 -5 -10 6 0 21 7 33 16
13 9 26 14 29 11 2 -3 -7 -13 -21 -22 -14 -10 -23 -21 -20 -26 8 -13 -10 -11
-26 4 -12 10 -12 9 -1 -6 13 -16 36 -20 29 -4 -2 3 6 13 17 20 25 17 87 15 93
-3 3 -7 0 -10 -7 -6 -6 4 -11 2 -11 -3 0 -6 -5 -11 -11 -11 -5 0 -7 5 -4 10 3
6 1 10 -5 10 -7 0 -10 -6 -8 -12 3 -7 20 -13 39 -14 19 -1 28 1 21 3 -10 4 -8
11 8 28 11 12 20 26 19 31 -4 23 2 35 14 28 8 -5 8 -2 -2 9 -11 14 -11 20 -1
32 7 8 17 12 23 8 6 -3 7 -1 3 6 -4 6 -12 9 -17 6 -5 -4 -9 -3 -9 2 0 15 15
28 34 31 18 3 19 2 5 -15 -13 -17 -13 -17 4 -4 17 13 17 15 -4 38 -13 12 -17
23 -11 23 6 0 14 -4 17 -10 3 -5 12 -10 18 -10 7 0 4 5 -5 11 -10 5 -18 15
-18 21 0 6 12 2 28 -8 17 -11 23 -12 15 -3 -9 11 -8 18 1 31 7 10 16 15 19 11
4 -3 1 -13 -6 -22 -11 -14 -10 -14 5 -2 10 7 15 18 11 24 -4 7 0 8 12 3 18 -7
18 -6 0 14 -20 22 -8 28 14 8 11 -10 13 -10 7 0 -4 6 -3 12 3 12 5 0 12 -6 15
-12 3 -7 4 -4 1 7 -4 16 1 20 20 21 16 1 22 -2 18 -10 -4 -7 -1 -6 9 1 8 7 18
9 23 5 4 -4 3 2 -3 13 -13 26 0 51 36 68 41 19 82 12 82 -15 0 -7 -4 -7 -12 0
-18 14 -64 9 -60 -6 1 -7 -5 -12 -14 -10 -20 4 -27 -12 -14 -32 8 -13 13 -13
30 -2 18 11 25 11 38 0 15 -12 16 -11 3 5 -8 10 -9 17 -3 17 6 0 16 -8 21 -17
6 -10 11 -13 11 -6 0 6 -4 15 -10 18 -5 3 -10 11 -10 17 0 7 4 7 13 0 6 -5 29
-8 50 -7 25 2 37 -1 34 -9 -2 -6 -11 -10 -19 -8 -9 1 -18 -5 -22 -13 -4 -11
-2 -14 7 -8 6 4 14 8 17 9 3 0 13 4 23 9 13 6 15 10 6 21 -6 8 -15 11 -20 8
-5 -3 -9 -1 -9 5 0 5 6 12 13 15 6 3 3 4 -9 1 -12 -3 -27 1 -34 10 -15 18 0
20 20 3 12 -11 12 -10 2 3 -9 12 -27 16 -66 15 -30 0 -58 -4 -62 -8 -12 -13
-24 -9 -24 7 0 8 3 14 8 14 20 -3 31 2 26 14 -3 10 5 14 30 14 19 0 33 -4 30
-8 -2 -5 -11 -6 -18 -3 -8 3 -16 1 -19 -3 -3 -5 12 -8 33 -7 29 1 46 -5 71
-27 19 -16 30 -29 25 -29 -5 0 0 -8 11 -17 11 -10 19 -28 18 -40 -1 -12 2 -20
7 -17 8 5 18 -11 22 -38 1 -7 6 -19 10 -27 7 -10 5 -12 -5 -7 -8 4 -7 1 3 -6
10 -9 39 -14 76 -13 34 1 58 -3 56 -7 -6 -9 -2 -10 37 -12 17 -1 25 2 22 10
-5 14 29 13 39 -1 11 -15 10 -22 -8 -40 -16 -15 -16 -16 1 -13 10 2 20 -2 22
-9 3 -8 -5 -10 -24 -7 -37 7 -41 13 -20 29 16 11 15 13 -8 13 -16 0 -29 -8
-36 -22 -9 -19 -9 -19 4 -3 20 24 30 21 16 -4 -6 -13 -7 -19 -1 -15 14 9 21
-15 10 -36 -5 -11 -5 -18 1 -18 12 0 23 29 15 41 -3 5 -1 9 5 9 17 0 23 -20
11 -35 -9 -11 -9 -15 -1 -15 6 0 11 6 11 13 0 8 3 9 8 1 4 -6 14 -11 22 -12 8
-1 24 -2 35 -4 12 -2 19 2 18 10 -3 14 13 16 22 2 3 -5 -3 -15 -15 -22 -24
-15 -26 -25 -5 -25 8 0 12 4 9 9 -3 4 -1 8 5 8 5 0 13 -4 16 -10 3 -5 11 -10
18 -10 6 0 2 6 -9 14 -10 8 -16 17 -12 21 3 4 16 -3 27 -14 19 -19 21 -19 21
-3 1 16 1 16 14 -1 13 -17 14 -16 12 7 -1 19 -4 22 -18 15 -22 -12 -25 -12
-25 6 0 9 6 14 14 11 8 -3 11 -1 8 4 -4 6 -14 9 -22 8 -9 -2 -18 2 -20 9 -5
15 33 9 53 -8 8 -6 14 -7 14 -3 0 14 -40 35 -52 28 -6 -4 -9 -1 -6 7 3 8 17
14 32 14 17 1 25 -3 22 -12 -3 -7 1 -10 8 -7 9 3 12 -9 10 -46 -1 -27 2 -50 7
-50 4 0 6 20 5 45 -1 29 2 44 8 42 6 -2 10 -12 10 -21 -2 -14 1 -14 13 -4 12
10 14 9 11 -8 -2 -13 2 -19 15 -18 13 1 16 -3 12 -16 -3 -10 -1 -21 4 -25 7
-4 8 1 4 11 -4 10 -2 15 3 11 11 -6 12 62 1 79 -8 14 21 56 34 49 13 -9 11
-25 -3 -22 -8 1 -12 -6 -10 -18 2 -11 4 -39 5 -62 1 -23 6 -45 11 -50 5 -4 6
-3 3 4 -4 6 -1 14 5 16 10 4 10 6 1 6 -21 2 -14 17 7 17 14 0 18 -5 15 -17 -3
-10 -1 -20 4 -24 7 -4 8 1 4 11 -4 12 -3 15 5 10 7 -4 10 -2 6 7 -3 8 2 19 10
26 13 11 15 9 11 -18 -2 -17 1 -31 6 -31 6 0 9 6 8 13 -3 26 1 47 11 47 5 0 7
-14 5 -31 -3 -24 -1 -29 7 -21 8 8 15 7 25 -6 13 -15 13 -15 4 5 -10 19 -8 22
9 20 13 -1 20 -9 21 -22 1 -16 2 -16 6 -3 3 10 11 15 21 12 9 -3 6 1 -8 9 -14
9 -28 13 -32 11 -5 -3 -8 2 -8 10 0 20 4 20 38 0 l27 -16 -25 21 -25 22 25 -6
c17 -4 21 -3 11 3 -7 5 -11 14 -8 19 10 16 -43 65 -62 58 -18 -7 -21 -8 -38
-6 -7 0 -13 6 -13 12 0 5 4 7 10 4 5 -3 18 -2 28 4 11 6 24 6 35 0 10 -6 17
-6 17 -1 0 12 -29 24 -41 16 -5 -3 -9 -1 -9 5 0 16 20 23 34 12 9 -8 13 -7 13
4 0 8 -3 13 -5 10 -7 -7 -52 44 -52 58 0 7 7 3 15 -7 16 -21 21 -11 7 12 -5 7
-17 10 -28 7 -19 -6 -19 -6 0 9 11 9 15 16 9 16 -7 0 -15 -4 -18 -10 -3 -5
-12 -10 -18 -10 -7 1 -2 9 10 19 19 16 20 20 8 38 -8 11 -11 24 -7 28 4 3 2 5
-3 3 -6 -2 -12 2 -14 7 -3 6 -15 18 -28 29 -14 10 -22 24 -19 32 3 7 0 16 -6
20 -7 4 -8 3 -4 -4 4 -7 1 -12 -9 -12 -9 0 -14 4 -10 9 3 5 1 12 -4 15 -20 13
-4 -24 19 -43 14 -11 20 -20 14 -21 -17 0 -39 22 -64 64 -15 25 -19 37 -9 32
8 -4 3 2 -10 13 -13 12 -21 21 -17 21 3 0 -9 16 -27 36 -85 94 -115 123 -121
117 -3 -3 -6 0 -6 8 -1 20 -209 151 -210 131 0 -4 -5 1 -11 11 -6 9 -14 15
-19 12 -5 -3 -17 -1 -27 4 -17 9 -52 23 -63 25 -3 1 -11 5 -19 10 -10 7 -12 6
-6 -3 6 -10 2 -10 -16 0 -13 7 -28 14 -34 15 -5 0 -14 2 -20 4 -5 1 -20 1 -32
0 -13 -1 -23 2 -23 7 0 4 -15 9 -32 10 -18 1 -58 3 -88 4 -30 2 -58 8 -62 14
-5 6 -8 7 -8 0z m51 -495 c4 -8 3 -23 -2 -32 -5 -9 -6 -24 -3 -32 3 -9 1 -16
-5 -16 -13 0 -17 28 -8 60 2 8 2 12 0 7 -3 -4 -9 -5 -14 -2 -10 7 -6 -46 5
-63 3 -6 15 -10 25 -9 15 1 17 5 10 18 -15 30 -9 35 11 11 17 -21 18 -26 5
-39 -15 -15 -19 -27 -15 -52 1 -10 -3 -10 -16 3 -9 9 -22 15 -30 12 -8 -3 -12
2 -11 15 1 22 8 24 25 7 9 -9 14 -9 22 0 6 6 7 10 3 7 -3 -3 -17 2 -30 10 -22
15 -29 10 -24 -17 1 -11 -11 -10 -29 2 -17 11 -23 53 -6 47 6 -2 9 -13 8 -23
-3 -14 -1 -16 8 -8 14 14 22 92 9 99 -5 4 -6 0 -3 -8 3 -8 1 -18 -5 -21 -6 -4
-7 -14 -4 -23 4 -11 3 -14 -6 -9 -16 10 -41 -12 -34 -30 3 -9 0 -13 -8 -11 -8
2 -11 2 -6 0 15 -9 6 -22 -13 -20 -11 1 -19 6 -16 12 2 7 -11 10 -38 9 -24 0
-48 5 -59 14 -16 15 -17 14 -11 -1 3 -10 3 -17 -2 -16 -21 4 -35 -2 -29 -11 3
-5 1 -10 -5 -10 -6 0 -4 -10 6 -24 15 -24 15 -25 -5 -23 -12 1 -20 6 -17 13 2
6 0 17 -4 25 -7 10 4 26 37 56 26 23 51 40 55 37 4 -3 8 -1 8 4 0 5 18 16 40
25 24 9 40 11 40 5 0 -7 5 -6 14 2 10 7 21 8 31 3 14 -8 13 -11 -5 -28 -22
-20 -28 -8 -7 14 10 11 9 12 -3 5 -8 -5 -26 -10 -40 -11 -45 -5 -48 -6 -59
-30 -6 -12 -16 -23 -23 -23 -10 0 -10 2 1 9 9 6 10 11 2 15 -10 7 -12 3 -11
-21 0 -5 12 -9 26 -10 19 -1 24 2 20 15 -4 12 3 21 21 30 23 10 30 10 43 -4
14 -15 13 -16 -5 -10 -11 3 -24 2 -30 -2 -14 -10 -17 -32 -5 -32 6 0 10 7 10
15 0 8 5 15 11 15 6 0 9 -7 5 -15 -9 -24 1 -18 39 22 23 24 31 40 25 48 -7 8
3 11 33 11 27 -1 44 -6 48 -16z m43 -4 c-3 11 -2 15 3 9 4 -6 18 -10 30 -9 12
1 20 -2 17 -7 -2 -4 -11 -6 -19 -2 -10 3 -15 -1 -15 -15 0 -14 -6 -19 -22 -18
-18 1 -23 7 -23 28 -1 26 0 27 17 11 18 -16 18 -16 12 3z m862 -64 c15 -22 12
-42 -7 -42 -6 0 -7 4 -4 10 3 5 1 18 -5 27 -9 15 -10 12 -6 -14 3 -23 1 -30
-9 -27 -7 3 -12 16 -10 30 1 15 -3 24 -11 24 -8 0 -14 4 -14 9 0 18 51 4 66
-17z m-744 -19 c24 -21 23 -28 -3 -30 -16 -2 -19 1 -11 9 8 8 7 15 -6 24 -9 8
-13 14 -8 14 5 0 18 -7 28 -17z m-342 -24 c0 -12 -18 -20 -24 -11 -6 10 -32 8
-60 -3 -19 -8 -19 -8 0 -15 14 -6 19 -17 19 -45 0 -21 -5 -40 -11 -42 -6 -2
-9 12 -8 37 1 22 -2 37 -6 35 -10 -6 -21 21 -14 38 5 14 104 19 104 6z m130
-38 c0 -5 -7 -14 -15 -21 -13 -11 -15 -9 -13 11 2 19 -1 23 -17 21 -11 -2 -34
-4 -52 -5 -18 -1 -39 -11 -48 -22 l-16 -20 3 20 c4 27 30 45 57 40 29 -5 53 4
44 18 -4 6 8 1 25 -12 18 -12 32 -26 32 -30z m145 23 c-32 -26 -46 -26 -54 -3
-4 12 -2 12 12 0 17 -13 22 -7 19 20 -1 4 11 7 26 7 l26 0 -29 -24z m845 14
c0 -6 -7 -19 -16 -29 -14 -16 -14 -18 4 -28 10 -6 26 -21 35 -35 13 -20 14
-29 4 -50 -14 -30 -22 -32 -36 -8 -8 14 -10 12 -8 -11 3 -34 24 -49 50 -36 19
11 47 -3 47 -24 0 -5 -8 -3 -18 6 -13 12 -22 13 -35 5 -13 -7 -22 -7 -29 0 -6
6 -16 8 -22 6 -8 -3 -13 7 -14 26 -3 57 -5 65 -16 72 -8 5 -7 8 2 8 6 0 12 5
12 11 0 5 -4 7 -10 4 -5 -3 -10 -2 -10 4 0 5 5 13 10 16 6 3 10 1 10 -5 0 -6
5 -8 11 -4 8 5 6 10 -5 16 -9 5 -20 7 -25 3 -5 -3 -13 0 -17 6 -5 8 -3 9 6 4
9 -6 10 -2 5 15 -4 14 -3 20 2 17 6 -4 19 0 29 8 23 18 34 19 34 3z m-1153
-30 c-1 -10 -5 -18 -9 -18 -5 0 -1 -11 8 -25 9 -14 12 -25 8 -25 -19 0 -31 16
-29 38 1 13 -2 25 -7 28 -14 9 -9 20 11 20 13 0 19 -7 18 -18z m-117 -13 c-12
-15 -4 -20 23 -16 9 1 9 -11 -2 -28 -7 -11 -11 -10 -20 5 -6 11 -11 13 -11 6
0 -7 -5 -10 -12 -6 -7 5 -8 3 -3 -6 5 -9 4 -11 -3 -6 -17 10 -15 26 4 26 8 0
12 5 9 10 -8 12 2 30 17 30 7 0 6 -6 -2 -15z m250 6 c0 -13 -26 -32 -33 -24
-11 10 -8 25 3 18 6 -3 10 -1 10 4 0 6 5 11 10 11 6 0 10 -4 10 -9z m60 -1 c0
-5 -4 -10 -10 -10 -5 0 -10 5 -10 10 0 6 5 10 10 10 6 0 10 -4 10 -10z m-121
-17 c-10 -11 -14 -11 -20 -1 -5 8 -9 9 -9 2 0 -6 9 -23 20 -37 14 -17 17 -28
10 -32 -6 -4 -14 -4 -17 -1 -4 3 -14 -1 -23 -9 -20 -18 -60 -28 -60 -14 0 5
-5 9 -11 9 -6 0 -4 -9 5 -22 10 -14 12 -27 6 -38 -5 -10 -7 -28 -5 -40 5 -26
-13 -54 -37 -58 -13 -2 -16 3 -13 19 2 12 0 29 -5 39 -7 13 -4 25 11 44 12 15
24 25 27 22 3 -3 -3 -15 -12 -25 -13 -14 -15 -24 -8 -38 5 -10 7 -24 4 -32 -2
-8 0 -11 5 -8 6 4 11 18 11 32 0 13 -4 22 -9 19 -15 -9 -10 6 6 23 18 17 14
40 -5 35 -8 -2 -10 3 -6 13 4 10 2 14 -5 9 -7 -4 -10 -1 -7 7 3 8 11 13 18 11
7 -2 21 5 31 14 13 12 19 13 19 4 0 -10 3 -10 15 0 8 7 12 16 10 21 -10 15 18
47 42 47 19 0 21 -3 12 -15z m-131 -25 c-2 -25 -15 -48 -29 -48 -11 0 -3 38
12 56 16 19 18 18 17 -8z m160 10 c17 -17 15 -24 -8 -25 -22 -2 -34 12 -25 27
8 13 18 13 33 -2z m-209 -54 c-5 -6 -7 -21 -4 -33 5 -25 -22 -74 -36 -65 -5 3
-18 0 -30 -7 -20 -10 -21 -9 -14 17 13 54 16 69 18 89 2 13 9 19 19 17 9 -1
19 2 23 8 4 6 11 5 20 -3 8 -7 9 -16 4 -23z m20 -67 c-11 -12 -17 -28 -13 -37
10 -24 13 -60 5 -60 -15 0 -21 13 -11 24 5 7 5 17 -2 26 -8 13 -9 12 -5 -2 4
-12 0 -16 -14 -15 -10 1 -19 5 -19 9 0 5 -9 3 -20 -4 -14 -9 -16 -15 -7 -21 8
-6 5 -7 -8 -3 -20 6 -20 6 -1 -9 23 -18 33 -19 41 -5 3 5 0 7 -8 4 -8 -3 -14
1 -14 10 0 18 34 17 41 -1 7 -17 -28 -40 -56 -38 -16 1 -23 8 -24 25 -2 27 32
64 51 56 8 -3 25 10 40 30 14 19 22 34 18 34 -5 0 -9 10 -10 23 l-2 22 19 -23
c19 -23 19 -24 -1 -45z m761 33 c0 -5 -5 -10 -11 -10 -5 0 -7 5 -4 10 3 6 8
10 11 10 2 0 4 -4 4 -10z m104 -11 c-3 -6 0 -16 6 -24 15 -18 -1 -20 -20 -2
-11 9 -11 8 0 -7 13 -17 13 -19 0 -14 -8 3 -15 16 -15 29 0 33 3 39 20 33 8
-4 12 -10 9 -15z m77 1 c1 -8 1 -22 0 -30 -2 -13 -1 -13 8 0 6 8 11 11 11 7 0
-5 -9 -21 -19 -36 -19 -27 -19 -27 1 -40 11 -7 17 -15 14 -18 -3 -4 -15 2 -25
11 -15 14 -24 15 -38 7 -12 -7 -14 -10 -4 -11 8 0 11 -3 8 -6 -4 -4 -13 -1
-21 5 -8 7 -20 10 -25 7 -6 -4 -15 3 -21 14 -6 11 -7 19 -3 18 4 -1 20 6 35
16 21 13 25 22 19 35 -13 25 -4 37 29 36 19 0 30 -5 31 -15z m24 10 c-8 -13 1
-13 26 0 12 7 19 7 19 1 0 -17 -41 -34 -52 -23 -9 9 -3 32 8 32 3 0 2 -4 -1
-10z m89 -2 c-3 -4 0 -8 5 -8 6 0 11 6 12 13 0 9 2 9 6 -1 2 -6 10 -9 16 -5
18 11 37 12 37 2 0 -6 8 -5 20 1 22 12 62 -2 41 -14 -6 -4 -11 -2 -11 4 0 6
-5 8 -11 4 -8 -4 -5 -11 9 -18 11 -6 21 -15 21 -21 1 -5 9 -10 18 -10 9 0 18
-5 20 -12 5 -15 -33 -9 -53 8 -13 11 -19 2 -15 -23 0 -5 -3 -8 -9 -8 -5 0 -10
2 -10 4 0 2 -3 12 -7 22 -4 11 -3 15 5 10 15 -9 27 13 13 27 -15 15 -93 17
-81 2 6 -7 4 -20 -6 -36 l-16 -24 20 23 c11 12 22 28 25 35 2 6 8 9 12 5 4 -4
2 -14 -4 -22 -7 -8 -9 -21 -5 -27 16 -27 12 -55 -8 -56 -18 -2 -19 0 -5 15 12
13 13 21 6 32 -9 12 -10 12 -5 -2 3 -10 2 -18 -2 -18 -15 0 -82 51 -82 63 0 8
-4 7 -10 -3 -5 -8 -13 -11 -17 -6 -4 5 -2 11 6 14 7 2 20 12 28 22 15 17 47
24 37 8z m-936 -17 c2 -6 0 -11 -5 -10 -20 3 -34 -2 -28 -11 3 -5 1 -10 -6
-10 -8 0 -9 -3 0 -13 6 -8 8 -17 4 -20 -14 -15 -21 -6 -17 21 3 15 5 34 5 43
1 18 41 19 47 0z m1169 -51 c-1 -11 -6 -19 -12 -16 -5 2 -18 -3 -27 -12 -15
-12 -18 -12 -18 -1 0 8 -6 5 -15 -7 -16 -24 -56 -26 -63 -4 -3 12 -2 12 8 3
14 -13 40 -7 40 9 0 6 -6 6 -14 -2 -12 -9 -15 -8 -13 9 1 15 6 20 17 15 31
-12 46 -11 69 7 29 24 30 23 28 -1z m35 -21 c-13 -10 -31 -28 -41 -40 l-18
-22 0 31 c0 25 3 29 14 21 12 -11 18 -2 15 22 -1 4 11 7 25 7 l27 0 -22 -19z
m-1250 -36 c-5 -10 -7 -23 -5 -30 6 -15 -15 -27 -30 -16 -7 4 -21 8 -32 8 -20
-1 -35 12 -35 29 0 4 11 1 25 -8 14 -9 25 -12 25 -6 0 5 3 9 8 9 16 -3 32 1
31 9 -3 15 1 22 11 22 7 0 7 -6 2 -17z m-57 -116 c6 0 11 -7 12 -16 1 -9 4
-33 7 -53 3 -25 0 -37 -7 -35 -7 1 -12 -5 -12 -13 0 -23 -18 -38 -39 -34 -11
2 -26 -2 -33 -8 -10 -8 -17 -8 -25 0 -7 7 -8 12 -4 12 5 0 2 8 -5 17 -8 10 -9
14 -2 10 6 -4 14 -3 18 3 3 5 -1 10 -9 10 -9 0 -16 5 -16 11 0 6 8 8 18 5 11
-4 32 4 52 19 41 30 39 30 37 5 -1 -11 -6 -19 -12 -16 -14 5 -69 -43 -73 -64
-2 -8 8 -1 22 15 13 17 28 26 32 22 5 -4 2 -12 -6 -17 -11 -7 -10 -9 7 -7 17
1 20 5 12 18 -13 26 -11 33 6 19 15 -12 20 -4 16 23 0 4 4 7 10 7 8 0 9 4 0
13 -6 8 -8 18 -4 23 4 5 1 3 -7 -3 -20 -18 -35 -16 -20 2 9 11 10 19 3 26 -6
6 -10 4 -11 -6 -1 -8 -3 -21 -4 -28 -1 -8 -13 -14 -29 -14 -30 0 -29 7 5 45
12 14 26 20 36 16 8 -3 20 -7 25 -7z m-55 -67 c0 -5 -4 -10 -10 -10 -5 0 -10
5 -10 10 0 6 5 10 10 10 6 0 10 -4 10 -10z m67 -232 c-1 -16 -2 -16 -22 0 -11
9 -21 18 -23 18 -2 1 8 1 22 0 16 -1 24 -7 23 -18z m1143 -63 c-12 -15 -4 -21
23 -16 4 1 7 -4 6 -11 -4 -32 1 -42 13 -30 14 14 28 16 28 4 0 -5 -10 -13 -22
-19 -19 -8 -20 -10 -4 -16 9 -4 15 -3 12 2 -3 5 1 11 8 14 8 3 14 15 13 26 -1
15 -5 17 -18 10 -30 -15 -35 -9 -10 11 13 11 17 20 10 20 -7 0 -9 3 -6 7 4 3
16 -3 27 -15 19 -20 33 -26 53 -23 4 1 3 -8 -3 -19 -7 -13 -7 -26 -1 -39 9
-15 7 -18 -12 -17 -12 1 -28 -2 -34 -7 -8 -6 -18 -5 -28 3 -8 6 -19 9 -25 5
-7 -4 -9 2 -6 18 3 17 -4 34 -24 55 -20 22 -24 34 -17 41 17 17 31 13 17 -4z
m-55 -84 c-2 -50 2 -63 21 -85 20 -21 21 -25 6 -24 -9 0 -25 -3 -35 -7 -10 -4
-17 -4 -16 1 5 29 -2 34 -25 19 -21 -14 -25 -14 -36 0 -10 12 -9 20 6 42 10
16 17 31 16 36 -1 4 5 7 13 7 9 0 12 6 9 15 -4 8 -2 15 4 15 18 0 7 -38 -21
-66 -19 -18 -24 -31 -18 -37 7 -7 17 -5 29 6 23 21 32 21 32 3 0 -8 5 -18 10
-21 15 -9 12 8 -4 30 -14 19 -15 19 -35 1 -37 -33 -32 -11 5 24 19 18 32 36
27 39 -13 10 -15 32 -3 45 5 7 6 17 2 21 -4 5 -2 5 4 2 7 -4 10 -31 9 -66z
m101 -78 c-3 -10 -2 -24 3 -32 10 -16 4 -41 -11 -41 -5 0 -6 4 -3 10 3 5 2 17
-3 26 -11 19 -4 54 10 54 5 0 7 -8 4 -17z m64 8 c0 -6 -4 -13 -10 -16 -5 -3
-10 1 -10 9 0 9 5 16 10 16 6 0 10 -4 10 -9z m-218 -43 c20 20 24 14 24 -38 0
-48 -8 -62 -21 -39 -4 6 -14 8 -22 5 -9 -4 -13 -1 -10 6 2 7 15 12 28 10 19
-2 21 0 9 8 -13 9 -13 11 0 21 12 8 11 9 -7 4 -15 -4 -25 0 -32 12 -9 15 -10
12 -7 -14 2 -18 -3 -42 -11 -53 -8 -12 -10 -20 -4 -20 6 0 11 4 11 9 0 5 8 8
18 6 9 -2 20 -4 24 -4 4 -1 19 -17 34 -36 22 -29 24 -38 14 -50 -9 -11 -9 -15
-1 -15 7 0 9 -5 5 -11 -5 -8 -10 -6 -16 5 -6 12 -5 23 3 34 11 14 11 15 -1 5
-17 -16 -40 -17 -40 -2 0 5 4 8 9 4 20 -12 22 18 3 37 -16 16 -24 18 -38 9
-11 -6 -13 -11 -6 -11 6 0 12 -5 12 -12 0 -6 -8 -3 -20 7 -11 10 -29 18 -41
19 -12 0 -24 7 -27 15 -3 8 0 11 7 7 20 -13 46 11 47 44 2 30 1 31 -13 10 -9
-12 -21 -19 -30 -16 -8 3 -11 1 -8 -5 4 -5 15 -7 26 -4 10 4 19 2 19 -3 0 -16
-39 -21 -51 -6 -10 12 -7 20 11 39 13 14 29 25 36 25 8 0 11 7 7 18 -5 13 0
11 21 -7 20 -19 29 -22 38 -13z m191 -9 c4 -3 2 -11 -6 -18 -12 -9 -14 -7 -14
14 0 14 2 22 6 18 3 -4 10 -10 14 -14z m-309 -71 c-3 -5 2 -18 12 -29 12 -13
13 -19 4 -19 -9 0 -10 -3 -1 -13 6 -8 8 -17 4 -20 -14 -15 -21 -5 -18 26 3 23
2 28 -5 16 -5 -9 -7 -26 -5 -39 3 -13 -4 -35 -16 -51 -17 -24 -24 -27 -40 -18
-11 5 -25 21 -31 35 -9 20 -14 22 -26 11 -13 -10 -15 -9 -9 6 6 16 4 16 -31 2
l-37 -15 25 21 c14 12 33 19 47 16 13 -2 23 0 23 4 0 5 -6 9 -12 9 -7 0 11 16
40 35 28 20 52 40 52 46 0 8 5 7 15 -1 8 -7 12 -17 9 -22z m184 -8 c19 -20 58
-18 46 2 -4 6 -10 5 -15 -3 -4 -7 -11 -10 -15 -6 -11 10 2 19 31 22 32 4 32
-5 -3 -38 l-28 -27 -14 24 c-7 14 -17 23 -22 20 -5 -3 -1 -12 8 -18 11 -8 13
-15 7 -19 -11 -7 -25 16 -28 46 -3 23 10 22 33 -3z m-60 -32 c14 -14 16 -32 3
-23 -22 13 -22 -19 0 -36 13 -10 21 -21 17 -24 -3 -4 -15 2 -26 13 -14 14 -23
17 -30 10 -8 -8 -10 -4 -9 11 1 11 10 24 20 27 14 4 16 9 6 20 -14 17 2 19 19
2z m-1351 -63 c0 -11 -4 -12 -14 -4 -7 6 -13 13 -13 15 0 2 6 4 13 4 8 0 14
-7 14 -15z m1060 -30 c9 0 18 -5 20 -12 3 -7 -7 -9 -31 -6 -18 2 -37 0 -40 -5
-4 -6 8 -9 29 -8 23 2 34 -1 32 -8 -2 -6 -12 -11 -23 -12 -39 -2 -45 -4 -39
-14 3 -5 1 -10 -5 -10 -6 0 -8 -5 -4 -11 4 -8 10 -5 17 7 15 28 15 28 32 14
12 -10 15 -10 15 1 0 10 5 9 17 -4 14 -14 15 -19 4 -29 -10 -11 -15 -9 -27 7
-13 18 -16 18 -30 3 -16 -16 -11 -43 6 -33 5 3 8 -3 7 -13 0 -10 -9 -19 -20
-19 -14 -2 -16 1 -7 12 9 10 7 15 -9 20 -13 4 -18 13 -16 31 1 13 5 27 8 31 4
3 -1 19 -9 36 -13 24 -13 31 -3 38 7 4 17 5 21 3 4 -3 8 1 8 8 1 8 7 5 16 -7
8 -11 22 -20 31 -20z m33 15 c8 -14 8 -20 0 -20 -6 0 -13 7 -17 16 -4 12 -7
13 -14 3 -4 -8 -11 -10 -16 -6 -4 5 -1 12 7 17 22 14 28 12 40 -10z m35 -8 c3
-11 17 -24 31 -31 17 -8 24 -17 20 -27 -3 -8 -2 -23 3 -33 7 -12 6 -18 -2 -18
-7 0 -20 -4 -30 -8 -10 -4 -17 -4 -16 1 3 20 -2 35 -10 30 -5 -3 -19 2 -32 13
l-23 18 27 27 c14 14 22 26 17 26 -6 0 -10 5 -10 10 0 17 18 11 25 -8z m111
-19 c-1 -47 -11 -62 -36 -60 -22 1 -26 12 -10 22 6 3 10 1 10 -6 0 -8 4 -9 13
0 14 11 16 38 4 57 -3 6 -4 14 0 18 14 14 19 4 19 -31z m46 -9 c-8 -14 -9 -13
-9 10 0 18 3 24 9 18 7 -7 7 -16 0 -28z m-66 -4 c0 -11 -1 -20 -2 -20 -1 0
-10 3 -18 6 -13 5 -14 9 -5 20 16 20 25 17 25 -6z m-300 -38 c0 -44 -9 -61
-30 -62 -4 0 -1 11 8 24 12 18 12 26 3 29 -9 4 -9 8 1 15 11 7 10 11 -1 20
-12 10 -14 6 -11 -22 2 -32 1 -34 -16 -24 -10 7 -17 15 -14 19 10 17 -19 20
-36 4 -18 -16 -40 -14 -40 5 0 9 9 10 67 12 18 1 32 4 31 7 -1 13 3 17 20 18
15 1 18 -6 18 -45z m-173 -5 c-3 -5 -11 -6 -19 -3 -7 3 -16 1 -19 -4 -3 -4 7
-7 22 -5 15 1 29 7 31 13 2 6 17 -1 33 -15 16 -15 27 -29 24 -31 -3 -3 -14 3
-24 12 -13 12 -25 15 -38 9 -22 -10 -44 -10 -60 0 -7 5 -17 5 -23 2 -21 -13
-49 -13 -54 0 -6 16 10 30 18 17 6 -10 64 -4 70 7 3 4 14 7 25 7 11 0 17 -4
14 -9z m104 -6 c1 -14 -3 -18 -15 -14 -15 4 -15 3 -2 -6 9 -7 10 -11 3 -11
-19 0 -26 20 -13 35 17 20 25 19 27 -4z m-327 -17 c0 -8 -9 -11 -24 -8 -25 4
-52 -18 -41 -36 3 -6 10 -8 14 -6 11 7 10 -27 -1 -40 -16 -22 -88 -7 -88 18 0
6 6 5 16 -3 20 -17 52 -19 64 -4 6 7 2 15 -13 24 -18 11 -20 11 -9 0 17 -18
15 -25 -8 -25 -25 0 -25 1 6 50 20 32 32 41 55 42 18 1 29 -4 29 -12z m35 6
c-3 -5 -1 -10 5 -10 6 0 8 -4 5 -10 -3 -5 -3 -10 2 -11 4 0 19 -2 33 -5 18 -3
21 -2 10 5 -8 5 -17 8 -21 5 -4 -2 -9 2 -12 10 -9 22 18 26 31 6 8 -13 19 -17
34 -14 43 10 53 9 50 -5 -2 -7 5 -22 14 -32 10 -11 15 -22 12 -25 -9 -9 -48
47 -41 60 4 7 1 7 -7 -1 -11 -10 -11 -15 0 -28 8 -10 9 -15 1 -15 -6 0 -11 -5
-11 -11 0 -8 4 -8 14 1 12 9 15 8 13 -9 -2 -24 -2 -24 -28 -10 -12 6 -18 17
-15 27 3 9 2 23 -3 31 -7 11 -10 9 -16 -8 -3 -11 -11 -21 -16 -21 -6 0 -7 5
-4 10 3 6 1 10 -5 10 -7 0 -10 -6 -7 -12 2 -7 12 -12 21 -12 17 2 22 -11 8
-20 -12 -7 -53 24 -47 35 6 8 -9 13 -29 10 -5 -1 -6 5 -2 14 3 10 2 14 -5 10
-6 -4 -8 -13 -5 -21 5 -14 -6 -19 -17 -8 -8 8 24 64 36 64 4 0 5 -4 2 -10z
m325 -18 c0 -4 -9 -8 -21 -9 -17 -2 -18 1 -9 12 12 14 30 12 30 -3z m-630 -2
c0 -12 -29 -20 -35 -10 -3 5 -13 7 -23 4 -13 -5 -14 -4 -3 4 16 11 61 13 61 2z
m539 -4 c6 -7 26 -13 44 -12 37 3 58 -9 50 -30 -3 -8 0 -14 6 -14 6 0 10 3 10
8 -3 18 2 35 8 28 13 -12 13 -46 0 -46 -6 0 -25 -14 -40 -32 -16 -18 -26 -27
-22 -21 4 9 -2 12 -23 9 -16 -2 -34 -6 -41 -10 -6 -4 -11 -3 -11 3 0 16 22 25
59 26 28 0 35 4 36 22 1 14 -3 19 -12 16 -10 -4 -11 -9 -2 -19 8 -10 6 -13
-10 -11 -12 1 -20 6 -17 12 2 6 -7 10 -23 9 -42 -2 -44 -3 -31 -18 9 -12 8
-15 -9 -13 -26 2 -26 12 -1 37 14 14 29 18 52 15 18 -2 39 -1 46 4 8 5 -3 8
-28 8 -25 0 -46 6 -52 14 -8 11 -9 10 -4 -4 4 -11 2 -17 -5 -15 -6 2 -10 7
-10 11 1 4 1 14 1 22 0 19 14 19 29 1z m-469 -6 c0 -5 -2 -10 -4 -10 -3 0 -8
5 -11 10 -3 6 -1 10 4 10 6 0 11 -4 11 -10z m48 -10 c4 -12 2 -13 -9 -3 -12
10 -17 8 -27 -8 -7 -11 -17 -17 -22 -14 -13 8 21 44 39 42 8 -1 17 -9 19 -17z
m138 3 c-6 -14 41 -50 51 -39 3 3 1 6 -6 6 -7 0 -9 5 -5 11 5 8 10 6 16 -5 12
-22 -15 -55 -43 -53 -22 1 -22 2 -9 27 8 15 6 22 -12 34 -12 8 -25 13 -30 10
-8 -5 -12 9 -3 17 10 11 45 4 41 -8z m241 2 c-2 -5 -11 -9 -20 -9 -9 1 -14 -3
-11 -8 3 -5 12 -7 19 -4 7 2 16 2 19 -1 7 -8 -24 -52 -45 -63 -14 -8 -17 -6
-16 10 1 12 7 18 14 16 21 -8 26 14 8 34 -9 10 -15 23 -12 27 8 12 48 11 44
-2z m-346 -21 c11 -14 10 -15 -7 -12 -13 2 -19 -3 -19 -17 0 -14 -6 -19 -20
-17 -11 2 -26 4 -33 4 -18 2 11 43 31 43 9 0 19 4 23 8 10 9 10 9 25 -9z m282
-87 c-4 -7 1 -6 10 2 10 8 20 12 22 9 3 -3 -1 -11 -9 -17 -11 -9 -20 -10 -35
-2 -11 6 -27 8 -35 5 -9 -3 -16 -2 -16 4 0 6 11 9 25 8 13 -2 22 1 19 6 -3 5
-12 7 -19 4 -14 -5 -28 18 -18 28 10 10 64 -35 56 -47z m117 43 c0 -5 -4 -10
-10 -10 -5 0 -10 5 -10 10 0 6 5 10 10 10 6 0 10 -4 10 -10z m240 0 c0 -5 -5
-10 -11 -10 -5 0 -7 5 -4 10 3 6 8 10 11 10 2 0 4 -4 4 -10z m-425 -10 c3 -5
1 -18 -4 -27 -11 -19 -11 -19 -15 15 -3 23 8 30 19 12z"/>
<path d="M14125 6290 c-3 -6 1 -7 9 -4 18 7 21 14 7 14 -6 0 -13 -4 -16 -10z"/>
<path d="M14147 6234 c-11 -11 -9 -19 12 -43 l19 -21 -2 32 c-1 31 -15 46 -29
32z m23 -14 c0 -5 -4 -10 -10 -10 -5 0 -10 5 -10 10 0 6 5 10 10 10 6 0 10 -4
10 -10z"/>
<path d="M13044 6234 c8 -26 -14 -47 -40 -38 -18 5 -18 5 -1 -6 15 -9 22 -8
37 5 11 10 24 14 32 9 7 -4 4 3 -7 17 -11 13 -22 26 -24 29 -2 3 -1 -4 3 -16z"/>
<path d="M12853 6195 c3 -28 37 -50 37 -24 0 5 -4 7 -10 4 -17 -10 -11 7 8 22
15 13 15 13 -5 4 -16 -8 -23 -8 -27 2 -3 6 -4 3 -3 -8z"/>
<path d="M12843 6145 c0 -7 7 -11 16 -8 9 3 5 -5 -9 -17 -21 -18 -21 -20 -4
-11 12 6 25 7 29 3 5 -4 5 -1 1 6 -4 6 -2 12 3 12 6 0 11 5 11 12 0 6 -3 8 -6
5 -4 -3 -14 -2 -24 3 -12 6 -17 5 -17 -5z"/>
<path d="M13825 6149 c-4 -5 0 -18 9 -28 20 -22 21 -38 1 -21 -15 12 -21 3
-16 -24 1 -5 -4 -6 -12 -3 -8 3 -20 1 -28 -4 -9 -5 -4 -7 16 -5 18 1 29 7 27
15 -1 6 5 11 15 9 13 -2 17 5 19 32 1 19 -1 29 -3 23 -3 -7 -9 -13 -15 -13 -6
0 -8 7 -4 15 6 17 0 20 -9 4z"/>
<path d="M13961 6118 c11 -21 34 -19 34 3 0 8 -10 15 -22 15 -19 1 -21 -2 -12
-18z m29 2 c0 -5 -4 -10 -10 -10 -5 0 -10 5 -10 10 0 6 5 10 10 10 6 0 10 -4
10 -10z"/>
<path d="M12886 5893 c-6 -14 -5 -15 5 -6 7 7 10 15 7 18 -3 3 -9 -2 -12 -12z"/>
<path d="M14192 5490 c-1 -16 2 -31 7 -34 5 -3 8 7 7 23 -2 40 -11 47 -14 11z"/>
<path d="M14166 5453 c-6 -14 -5 -15 5 -6 7 7 10 15 7 18 -3 3 -9 -2 -12 -12z"/>
<path d="M13899 5333 c-13 -16 -12 -17 4 -4 9 7 17 15 17 17 0 8 -8 3 -21 -13z"/>
<path d="M13839 5273 c-10 -11 -10 -14 -1 -9 6 4 12 2 12 -3 0 -6 -5 -11 -11
-11 -5 0 -7 -5 -3 -11 4 -7 1 -10 -7 -7 -8 3 -13 11 -11 17 1 7 -3 9 -9 6 -8
-5 -8 -10 0 -18 16 -16 13 -25 -6 -23 -25 2 -26 -25 -3 -54 24 -32 43 -17 47
37 1 21 5 50 7 66 5 32 3 33 -15 10z m-1 -78 c0 -14 -5 -25 -10 -25 -5 0 -6
-4 -3 -10 11 -17 -7 -11 -21 8 -18 23 -18 46 1 39 8 -4 17 -2 20 3 10 16 13
12 13 -15z"/>
<path d="M13807 5189 c7 -7 15 -10 18 -7 3 3 -2 9 -12 12 -14 6 -15 5 -6 -5z"/>
<path d="M13635 5150 c-8 -13 9 -20 24 -11 10 6 9 10 -3 14 -8 3 -18 2 -21 -3z"/>
<path d="M13754 5116 c-14 -11 -16 -17 -7 -26 15 -16 32 -5 30 20 -1 11 -2 20
-2 20 -1 0 -10 -6 -21 -14z m16 -16 c0 -5 -4 -10 -10 -10 -5 0 -10 5 -10 10 0
6 5 10 10 10 6 0 10 -4 10 -10z"/>
<path d="M13792 5090 c-1 -16 2 -31 7 -34 5 -3 8 7 7 23 -2 40 -11 47 -14 11z"/>
<path d="M13175 4960 c3 -5 8 -10 11 -10 2 0 4 5 4 10 0 6 -5 10 -11 10 -5 0
-7 -4 -4 -10z"/>
<path d="M12994 4989 c-3 -6 -2 -15 3 -20 5 -5 9 -1 10 11 2 22 -2 25 -13 9z"/>
<path d="M10167 6913 c-2 -1 -26 -5 -117 -18 -14 -1 -26 -4 -27 -5 -2 -1 -6
-3 -10 -4 -5 -1 -14 -5 -22 -10 -10 -6 -12 -5 -7 2 4 7 -14 3 -39 -8 -25 -11
-47 -20 -50 -20 -3 0 -6 0 -7 -1 -2 0 -10 -2 -18 -4 -29 -5 -140 -59 -140 -67
0 -4 -8 -8 -19 -8 -10 0 -24 -7 -31 -15 -7 -8 -19 -15 -26 -15 -8 0 -14 -4
-14 -9 0 -5 -9 -13 -20 -16 -11 -3 -20 -13 -20 -21 0 -8 -4 -13 -10 -9 -18 11
-208 -204 -193 -219 4 -3 1 -6 -6 -6 -10 0 -21 -19 -32 -55 -1 -5 -9 -16 -16
-23 -7 -7 -13 -21 -13 -30 0 -10 -7 -28 -16 -40 -8 -12 -13 -22 -9 -22 3 0 -1
-15 -9 -34 -8 -19 -12 -36 -10 -39 3 -2 0 -17 -6 -33 -6 -15 -13 -58 -14 -95
-2 -37 -6 -71 -9 -76 -3 -5 -2 -15 3 -23 4 -7 4 -24 -1 -37 -5 -12 -5 -23 -1
-23 5 0 9 -24 10 -52 2 -47 8 -93 12 -93 2 0 10 -36 12 -57 1 -10 6 -18 11
-18 5 0 7 -6 4 -13 -6 -15 75 -191 100 -219 9 -10 13 -18 10 -18 -3 0 4 -10
16 -23 12 -13 29 -33 37 -45 8 -12 20 -22 27 -22 7 0 13 -7 13 -15 0 -8 3 -15
8 -15 4 0 27 -18 50 -40 24 -22 47 -40 51 -40 4 0 14 -11 21 -25 11 -21 16
-23 29 -12 12 9 13 9 7 0 -4 -8 -2 -13 4 -13 7 0 9 -9 5 -22 -5 -21 -5 -21 9
2 l15 25 2 -25 c1 -14 1 -29 0 -33 -1 -5 3 -6 9 -2 5 3 10 1 10 -4 0 -6 5 -11
10 -11 6 0 3 11 -6 25 -10 15 -12 25 -5 25 6 0 11 -4 11 -8 0 -4 10 -8 21 -9
24 -2 35 -10 26 -19 -4 -4 -15 -1 -24 7 -16 13 -17 12 -5 -3 11 -14 10 -18 -5
-28 -15 -10 -15 -11 -1 -6 9 3 19 2 21 -2 2 -4 2 -1 0 6 -1 8 3 12 9 9 7 -2
12 -16 12 -30 -1 -15 3 -24 7 -21 5 3 9 1 9 -5 0 -5 9 -8 20 -6 12 2 23 -2 27
-10 3 -8 10 -12 16 -8 6 4 8 0 4 -11 -4 -10 -3 -15 3 -11 6 3 10 1 10 -4 0 -6
5 -11 11 -11 8 0 8 4 0 14 -17 20 -23 58 -8 53 7 -2 12 -10 12 -18 0 -21 41
-59 52 -48 15 15 55 20 50 6 -2 -7 -11 -11 -20 -9 -21 3 -28 -10 -15 -28 8
-12 9 -11 4 3 -4 12 -2 17 6 14 7 -2 12 -10 10 -16 -1 -8 4 -9 15 -4 10 5 25
8 33 7 8 -1 23 -2 33 -3 9 0 17 -6 17 -12 0 -6 -8 -8 -19 -4 -11 3 -23 1 -26
-6 -6 -8 -10 -7 -16 2 -6 10 -9 10 -9 2 0 -16 17 -26 25 -13 3 5 11 10 16 10
6 0 8 -4 5 -8 -2 -4 3 -8 13 -8 23 0 24 34 1 46 -10 5 -27 7 -37 4 -17 -6 -17
-6 -1 11 16 17 18 17 46 -4 20 -14 29 -27 25 -39 -4 -15 1 -19 25 -20 19 0 33
5 36 15 7 18 -2 36 -14 28 -5 -3 -11 -1 -15 5 -3 5 -1 10 6 10 7 0 5 8 -6 20
-10 11 -13 20 -7 20 6 0 18 -10 26 -22 9 -12 16 -18 16 -12 0 5 -5 15 -12 22
-9 9 -9 12 -1 12 7 0 15 -5 19 -11 10 -17 11 -89 2 -89 -4 0 -8 -5 -8 -10 0
-6 10 -4 23 5 13 8 27 12 30 8 12 -11 7 -21 -9 -19 -9 0 -18 -5 -20 -12 -1 -7
0 -8 3 -2 2 5 9 10 14 10 6 0 8 -4 5 -8 -3 -5 9 -8 27 -8 28 1 32 4 31 29 -1
16 3 26 10 24 13 -4 15 -37 3 -54 -9 -12 -3 -12 43 -1 8 1 14 -2 13 -8 -1 -6
5 -11 13 -11 12 0 12 3 -1 17 -20 22 -19 25 5 27 11 1 18 -2 15 -7 -9 -14 6
-40 19 -33 18 12 67 12 59 0 -4 -6 -1 -7 8 -1 8 4 27 8 44 9 24 0 30 4 28 21
-1 13 4 21 13 21 9 0 13 -6 9 -16 -5 -12 -3 -13 5 -5 8 8 9 18 3 30 -5 11 -8
38 -7 60 2 41 1 42 -30 40 -22 -2 -31 -7 -30 -18 1 -10 -6 -16 -17 -15 -23 2
-24 5 -1 31 17 21 17 21 -3 4 -21 -18 -55 -9 -55 14 0 9 3 9 12 0 14 -14 32
-16 24 -3 -3 4 7 7 22 5 14 -1 30 3 34 9 6 9 8 9 8 0 0 -7 5 -13 11 -13 5 0 7
6 3 13 -5 7 0 6 11 -3 11 -9 16 -10 11 -2 -5 8 0 12 14 12 15 0 19 -4 13 -12
-11 -18 -12 -99 -1 -121 6 -12 2 -24 -16 -42 -14 -14 -21 -25 -16 -25 5 0 15
6 23 14 9 9 18 11 24 5 6 -6 16 -3 29 7 10 8 13 12 5 8 -9 -4 -12 -2 -9 6 6
20 76 21 88 1 7 -13 9 -13 7 6 0 12 -4 20 -8 17 -4 -2 -11 1 -15 7 -5 8 1 10
19 7 19 -4 24 -1 20 10 -5 12 -2 12 15 3 26 -14 39 -33 21 -30 -26 3 -39 -1
-39 -12 0 -8 5 -8 15 1 18 15 20 0 3 -20 -7 -8 -1 -4 15 9 18 17 27 20 27 11
0 -9 6 -5 16 8 11 17 19 20 28 13 10 -8 12 -2 12 25 -1 19 -5 38 -11 42 -5 4
-12 16 -13 26 -3 17 -1 18 12 7 8 -7 18 -21 21 -32 4 -10 12 -19 19 -19 8 0
19 -6 26 -14 12 -16 44 -10 34 6 -3 5 2 8 12 7 27 -5 44 9 37 29 -5 15 -3 14
18 -3 22 -19 23 -19 9 -1 -13 18 -13 19 1 14 11 -4 24 4 39 24 12 16 24 27 27
24 4 -3 -2 -16 -13 -28 -18 -23 -18 -23 6 0 22 20 23 25 10 35 -15 12 -26 47
-15 47 3 0 14 -14 24 -30 17 -29 18 -30 35 -11 15 17 16 19 1 25 -9 3 -22 3
-28 -1 -7 -4 -8 0 -4 11 4 10 7 20 7 22 0 3 13 -4 28 -15 28 -19 28 -19 40 0
15 23 15 29 2 29 -6 0 -9 -5 -8 -11 2 -6 -2 -13 -7 -15 -6 -2 -11 4 -12 15 -2
22 26 33 51 19 12 -7 16 -6 14 4 -2 7 4 12 12 10 11 -2 10 2 -4 12 -10 9 -24
17 -30 20 -7 3 -6 8 4 15 21 15 30 13 24 -4 -4 -8 -1 -15 6 -15 6 0 8 5 5 10
-3 6 -2 10 4 10 5 0 11 -6 14 -12 2 -8 8 -9 13 -4 5 5 4 11 -3 13 -7 3 -23 13
-35 23 l-22 18 27 0 c15 0 24 -4 22 -9 -9 -13 16 -22 28 -10 9 9 8 11 -3 6
-11 -4 -16 1 -17 15 -2 20 15 23 30 5 5 -6 6 -2 3 9 -5 14 -2 17 9 12 9 -3 14
-2 10 3 -3 5 1 11 7 14 7 3 -4 4 -25 2 -24 -1 -36 2 -34 9 2 6 19 11 37 11 27
0 34 4 37 24 2 14 9 32 16 40 8 9 14 27 15 40 1 22 0 22 -13 5 -8 -11 -14 -14
-15 -9 0 16 13 31 38 44 12 7 20 16 17 21 -3 4 -2 10 2 13 5 2 2 2 -6 0 -9 -2
-11 2 -7 13 3 8 6 18 6 20 0 2 5 4 11 4 5 0 7 -5 3 -12 -4 -7 -3 -8 5 -4 17
11 2 28 -19 21 -10 -3 -21 -1 -25 5 -4 7 -12 7 -26 0 -14 -8 -19 -7 -19 1 0 6
-9 1 -19 -12 -11 -13 -23 -20 -27 -16 -5 4 -2 13 6 18 12 9 12 10 -3 5 -10 -3
-21 -6 -23 -6 -3 0 -3 -4 1 -9 6 -11 -12 -25 -37 -26 -14 -1 -17 4 -13 19 5
17 3 16 -9 -4 -8 -14 -12 -28 -10 -32 3 -5 0 -8 -7 -8 -7 0 -9 -3 -6 -6 4 -4
13 -1 22 6 17 14 21 1 5 -18 -7 -9 -7 -9 2 -2 7 6 17 10 23 10 12 -1 -33 -40
-46 -40 -5 0 -6 6 -3 14 6 16 -23 30 -32 14 -4 -5 6 -21 22 -33 27 -22 28 -24
6 -22 -12 1 -25 9 -28 19 -3 10 -10 15 -16 12 -6 -4 -6 1 1 14 6 12 15 23 20
27 14 8 41 65 41 87 0 10 5 18 10 18 6 0 9 3 8 8 -1 4 4 29 12 57 14 50 47 98
61 89 14 -8 21 17 9 32 -10 11 -16 12 -27 3 -22 -19 -25 -4 -2 16 17 17 22 17
30 5 8 -12 9 -11 7 4 -2 10 2 21 8 23 6 2 9 -15 8 -47 -3 -54 6 -62 38 -33 19
17 26 5 6 -15 -8 -8 -5 -10 16 -6 16 3 35 -1 45 -8 14 -11 14 -11 4 3 -13 16
-8 29 9 29 5 0 6 -5 2 -12 -5 -7 -3 -8 5 -3 9 5 8 12 -7 29 -12 13 -18 33 -17
53 2 18 -4 38 -11 44 -8 6 -14 17 -14 23 0 6 12 -1 25 -17 14 -16 22 -34 19
-45 -5 -13 -4 -14 4 -3 6 8 8 21 4 29 -4 11 -1 13 8 7 9 -5 11 -4 6 4 -4 6
-12 9 -17 6 -12 -8 -12 8 1 23 7 9 7 9 -2 2 -7 -5 -17 -10 -22 -10 -6 1 -1 9
12 20 13 11 18 21 12 25 -6 3 -8 10 -5 15 9 15 -15 22 -30 10 -22 -18 -18 3 5
28 12 13 16 23 9 27 -7 5 -6 11 2 21 9 11 7 22 -10 49 -11 19 -16 35 -11 35 6
0 10 5 10 10 0 6 -11 3 -25 -6 -14 -9 -25 -12 -25 -6 0 5 6 12 14 15 8 3 14
15 13 26 -1 24 -8 26 -26 9 -11 -11 -12 -9 -7 9 4 12 2 24 -5 29 -15 9 -41
-25 -34 -44 3 -8 0 -12 -7 -10 -22 8 -20 27 6 53 16 16 31 23 43 19 14 -5 15
-4 4 4 -7 5 -10 15 -7 21 4 6 4 11 -1 10 -20 -3 -25 2 -13 16 11 13 10 14 -4
9 -10 -4 -15 -13 -12 -20 6 -16 -10 -19 -19 -4 -4 6 -2 17 4 24 9 10 8 15 -4
19 -8 4 -12 13 -9 21 3 8 1 17 -5 21 -7 4 -8 -1 -4 -12 6 -16 5 -17 -11 -4
-15 12 -15 17 -4 25 11 9 8 16 -13 39 -24 27 -26 27 -40 10 -13 -16 -12 -17 2
-5 14 10 19 8 34 -14 16 -25 16 -27 0 -21 -9 4 -19 7 -21 7 -3 0 -2 5 2 12 4
7 3 8 -5 4 -6 -4 -9 -12 -6 -17 4 -5 2 -9 -3 -9 -14 0 -21 35 -10 54 7 12 3
23 -14 41 -13 14 -29 25 -35 25 -7 0 -13 5 -13 10 0 6 -13 24 -30 42 -16 17
-30 37 -30 45 0 8 -3 12 -7 10 -5 -3 -14 1 -21 9 -7 8 -10 14 -7 14 4 0 -8 12
-27 27 -18 16 -44 38 -58 51 -14 13 -44 35 -67 49 -24 14 -43 29 -43 34 0 4
-6 6 -13 3 -8 -3 -20 2 -27 11 -7 8 -16 15 -20 15 -4 0 -24 7 -44 15 -20 8
-37 14 -39 13 -2 -2 -11 3 -20 11 -10 7 -17 10 -17 7 0 -4 -9 -2 -21 4 -11 6
-29 13 -40 16 -10 2 -29 6 -41 9 -40 9 -82 17 -118 22 -34 5 -289 10 -293 6z
m195 -388 c20 1 34 -3 31 -8 -3 -5 4 -6 16 -2 13 4 21 2 21 -5 0 -6 -5 -8 -10
-5 -6 3 -23 -8 -39 -25 l-28 -32 0 26 c0 14 3 24 6 21 4 -2 13 0 20 4 9 6 10
11 2 15 -6 4 -11 2 -11 -3 0 -6 -5 -10 -12 -8 -14 2 -19 -41 -8 -63 10 -19 -4
-46 -30 -60 -16 -8 -19 -7 -17 10 1 11 7 19 16 17 20 -3 24 18 6 36 -17 17
-20 31 -5 22 6 -3 10 -2 10 3 0 6 -7 12 -15 16 -8 3 -15 11 -15 17 0 9 3 9 14
0 10 -9 15 -8 19 3 4 10 1 13 -9 9 -9 -3 -14 1 -14 13 0 11 3 15 8 8 4 -5 24
-10 44 -9z m-89 -16 c9 10 8 11 -5 6 -10 -4 -18 -3 -18 2 0 5 11 9 25 9 31 0
32 -10 3 -31 -21 -14 -24 -14 -39 3 -13 17 -18 18 -34 6 -10 -8 -28 -12 -39
-8 -15 4 -17 3 -7 -4 9 -7 10 -12 2 -16 -6 -4 -11 -3 -11 3 0 5 -8 8 -17 7
-10 -2 -18 -11 -18 -20 0 -24 -35 -49 -50 -36 -8 6 -18 5 -30 -4 -14 -10 -15
-15 -5 -21 8 -5 11 -4 7 2 -4 6 -1 13 6 16 10 4 14 -4 14 -24 0 -28 -1 -29
-23 -14 -17 11 -24 12 -27 2 -2 -6 -8 -8 -13 -4 -5 4 -4 11 2 15 6 4 16 17 23
30 7 12 16 20 20 17 5 -3 12 2 15 11 3 8 10 12 16 9 5 -3 10 -1 10 4 0 6 7 11
16 11 8 0 13 4 10 9 -3 4 4 8 17 7 12 0 21 4 20 10 -1 6 8 9 22 7 13 -3 31 0
42 5 13 8 22 7 36 -5 14 -13 20 -14 30 -4z m173 -15 c-3 -8 -2 -13 3 -10 5 3
11 -1 15 -9 6 -17 1 -19 -23 -6 -13 7 -17 5 -17 -9 0 -15 3 -16 14 -7 11 9 13
7 10 -8 -4 -24 16 -30 35 -10 17 16 32 21 23 6 -3 -5 6 -8 19 -8 14 0 28 3 31
8 3 5 -3 6 -13 3 -15 -5 -16 -4 -3 6 13 10 13 11 -2 6 -26 -8 -48 3 -41 22 4
15 3 15 -6 2 -10 -13 -12 -13 -21 0 -5 8 -10 20 -10 25 0 6 4 4 9 -4 5 -7 14
-11 19 -7 6 4 16 -3 22 -14 6 -11 15 -18 21 -14 12 7 41 -15 33 -27 -3 -5 -1
-9 5 -9 16 0 61 -49 50 -55 -5 -4 -7 -11 -4 -16 4 -5 2 -9 -4 -9 -5 0 -12 5
-14 10 -3 6 -4 5 -3 -2 1 -7 13 -14 26 -14 21 -1 64 -43 55 -53 -2 -2 2 -15 9
-30 14 -30 10 -64 -7 -58 -7 2 -20 0 -29 -5 -10 -5 -18 -5 -18 -1 0 4 -31 8
-70 8 -40 0 -70 -4 -70 -10 0 -7 -3 -7 -8 0 -8 12 -72 15 -72 3 0 -4 -10 -4
-22 1 -13 4 -32 6 -43 4 -23 -5 -24 -5 -83 0 -23 2 -48 0 -54 -4 -7 -5 -18 -3
-25 3 -7 6 -13 7 -13 4 0 -4 -9 -2 -19 4 -11 5 -21 7 -24 2 -2 -4 -2 -1 -1 6
2 6 0 12 -4 12 -4 0 -8 10 -9 23 -2 21 0 20 21 -7 l24 -28 22 30 c13 17 27 29
32 26 4 -3 8 -1 8 5 0 5 -8 10 -17 10 -44 1 -54 5 -49 18 3 8 1 11 -4 8 -6 -4
-9 -14 -8 -22 2 -9 -2 -18 -9 -20 -8 -3 -11 3 -8 16 5 28 13 39 35 51 17 9 20
8 17 -12 -1 -14 4 -23 13 -24 8 0 9 1 3 3 -7 3 -13 9 -13 14 0 16 19 10 37
-11 19 -22 33 -26 33 -9 0 5 -4 7 -10 4 -5 -3 -10 -1 -10 4 0 6 2 11 4 11 2 0
12 3 22 7 13 5 15 3 9 -8 -8 -12 -6 -12 8 -1 9 8 28 15 42 16 33 4 42 13 26
29 -10 9 -12 9 -9 -2 2 -7 -3 -16 -11 -19 -9 -3 -11 0 -6 8 6 9 4 11 -6 6 -8
-4 -5 0 6 8 11 9 24 15 30 12 10 -3 14 10 16 57 0 9 4 17 9 17 5 0 12 9 15 20
4 11 11 18 16 15 5 -4 9 -1 9 5 0 6 4 9 9 5 5 -3 12 -1 16 5 10 16 18 12 11
-6z m-206 -9 c7 -8 10 -15 7 -15 -3 0 -13 -3 -21 -6 -12 -5 -15 -2 -10 12 4
14 3 15 -4 6 -5 -8 -13 -14 -18 -15 -5 -1 -8 -8 -8 -14 2 -18 -13 -16 -20 2
-3 9 5 20 22 29 34 19 37 19 52 1z m62 -15 c-2 -7 5 -21 14 -31 10 -11 15 -22
12 -25 -9 -9 -48 47 -41 60 4 7 1 7 -7 -1 -11 -10 -11 -15 0 -28 7 -8 8 -15 2
-15 -5 0 -16 7 -23 16 -11 14 -10 18 6 30 22 16 41 13 37 -6z m-142 -21 c7
-12 19 -17 38 -15 28 3 52 -9 52 -26 0 -6 -7 -5 -15 2 -9 7 -18 10 -22 6 -3
-3 -1 -6 5 -6 7 0 12 -4 12 -9 0 -6 -9 -9 -20 -8 -13 1 -19 6 -15 15 2 7 0 10
-5 7 -6 -3 -20 1 -32 9 -12 9 -18 16 -13 16 6 0 2 5 -7 11 -10 5 -18 14 -18
19 0 15 30 0 40 -21z m1041 -22 c-8 -8 -11 -6 -11 6 0 9 -4 17 -10 17 -5 0
-10 7 -10 15 0 11 5 10 21 -6 15 -15 18 -24 10 -32z m-985 16 c-7 -7 -26 7
-26 19 0 6 6 6 15 -2 9 -7 13 -15 11 -17z m73 -19 c5 4 9 -2 8 -14 -1 -15 -6
-19 -22 -14 -20 6 -20 6 -1 -9 33 -24 28 -54 -7 -48 -4 1 -16 -3 -26 -8 -20
-11 -66 13 -56 30 4 5 2 9 -4 9 -5 0 -11 -5 -13 -11 -5 -14 -58 -21 -58 -8 0
5 5 9 11 9 6 0 1 8 -12 19 -13 10 -29 16 -36 14 -7 -3 -13 -1 -13 5 0 18 24
20 43 4 24 -21 115 -24 145 -5 l24 15 -21 14 c-12 9 -21 20 -21 26 0 6 11 1
24 -11 14 -13 29 -20 35 -17z m191 21 c-7 -8 -17 -15 -22 -15 -6 0 -5 7 2 15
7 8 17 15 22 15 6 0 5 -7 -2 -15z m-340 -27 c0 -4 -8 -5 -17 -2 -15 5 -15 4
-3 -4 9 -7 19 -7 26 -2 11 10 24 4 24 -11 0 -11 -50 -3 -62 9 -8 8 -7 16 2 27
11 13 15 13 21 3 5 -7 9 -16 9 -20z m-131 -43 c6 3 19 1 30 -4 14 -8 22 -7 31
4 9 11 15 12 25 2 11 -10 10 -15 -3 -30 -20 -22 -29 -13 -11 10 13 16 12 17
-4 4 -9 -7 -16 -20 -15 -29 2 -8 -2 -17 -9 -19 -8 -3 -10 4 -7 22 3 18 1 24
-6 20 -6 -4 -9 -13 -6 -21 6 -16 -10 -19 -19 -4 -4 6 -1 19 6 28 11 14 11 15
-1 5 -20 -18 -28 -16 -41 10 -11 20 -11 21 4 9 9 -8 21 -11 26 -7z m22 -65
c14 0 48 -61 42 -76 -3 -8 -1 -14 5 -14 6 0 9 11 7 25 -1 15 4 29 12 34 13 7
13 9 -2 15 -9 3 -21 4 -26 0 -16 -10 -9 12 9 28 23 21 55 20 46 -1 -3 -9 -7
-20 -8 -26 -1 -5 -5 -15 -8 -21 -4 -5 -5 -23 -2 -40 l4 -29 -82 2 c-47 0 -89
-4 -96 -10 -10 -8 -12 -7 -10 4 2 8 -3 13 -11 11 -11 -2 -12 0 -3 11 7 8 9 17
5 20 -3 4 -1 7 5 7 6 0 9 7 6 15 -4 8 -1 15 6 15 6 0 8 -4 5 -10 -6 -9 8 -14
28 -11 10 1 9 -6 -4 -32 -9 -19 -7 -18 10 3 13 17 16 27 8 32 -6 4 -14 5 -17
3 -3 -2 -12 6 -19 18 -8 12 -10 19 -6 15 4 -4 17 -1 27 7 11 7 28 11 37 8 13
-4 14 -3 2 5 -10 7 -21 7 -34 1 -10 -6 -23 -8 -30 -5 -7 2 -2 8 11 11 12 4 22
12 22 17 0 5 -4 6 -10 3 -6 -3 -7 1 -4 10 6 13 12 11 36 -14 17 -17 34 -31 39
-31z m619 48 c0 -4 -4 -8 -9 -8 -6 0 -12 4 -15 8 -3 5 1 9 9 9 8 0 15 -4 15
-9z m600 1 c0 -6 11 -19 24 -30 20 -15 23 -26 21 -71 -1 -29 -5 -60 -9 -69 -8
-17 20 -47 32 -35 7 8 8 13 11 41 2 24 19 17 19 -7 1 -55 8 -73 25 -72 23 2
52 -52 38 -70 -6 -7 -8 -15 -5 -19 8 -8 -15 -47 -28 -47 -6 0 -3 11 6 25 9 14
13 25 8 25 -4 0 -8 9 -9 19 -1 14 3 18 15 14 13 -4 14 -3 4 5 -8 5 -13 13 -13
18 1 5 -5 9 -11 9 -7 0 -16 4 -20 10 -4 5 -6 -6 -5 -24 1 -19 -3 -36 -9 -38
-6 -2 -10 13 -9 36 1 22 -2 38 -6 35 -4 -2 -10 3 -13 12 -4 9 -13 13 -24 10
-15 -5 -18 0 -20 31 -2 21 -5 39 -7 42 -3 2 0 10 7 18 8 11 7 12 -6 7 -24 -9
-19 11 7 25 21 11 20 11 -8 6 -24 -4 -27 -3 -13 5 15 9 16 14 6 30 -7 10 -17
16 -23 13 -5 -4 -7 -3 -3 2 4 4 3 15 -2 25 -9 17 -4 30 12 30 4 0 8 -5 8 -11z
m5 -77 c-3 -3 -11 0 -18 7 -9 10 -8 11 6 5 10 -3 15 -9 12 -12z m-1165 4 c0
-3 -4 -8 -10 -11 -5 -3 -10 -1 -10 4 0 6 5 11 10 11 6 0 10 -2 10 -4z m92 -10
c6 4 6 -2 -1 -14 -6 -12 -15 -23 -20 -26 -15 -9 -22 25 -9 41 8 10 14 11 16 4
2 -6 8 -8 14 -5z m1148 -36 c-19 -12 -30 -12 -30 -1 0 10 31 20 40 14 2 -2 -2
-8 -10 -13z m50 -80 c0 -5 -4 -10 -10 -10 -5 0 -10 5 -10 10 0 6 5 10 10 10 6
0 10 -4 10 -10z m-64 -52 c12 -35 13 -51 6 -62 -9 -15 -13 -35 -15 -74 -1 -18
-6 -31 -13 -28 -6 2 -10 -6 -9 -17 1 -18 8 -22 35 -22 18 0 35 -5 37 -10 4
-12 -56 -13 -75 -1 -13 8 -11 43 3 79 5 11 2 17 -6 17 -12 0 -12 2 -1 9 7 4
14 16 16 25 1 10 8 21 15 25 9 6 5 14 -13 32 -18 17 -22 27 -14 36 15 19 26
16 34 -9z m64 -33 c-7 -9 -15 -13 -17 -11 -7 7 7 26 19 26 6 0 6 -6 -2 -15z
m-85 -5 c4 -6 2 -17 -4 -24 -6 -7 -9 -16 -6 -19 3 -4 2 -5 -2 -2 -12 9 -12 35
0 35 7 0 5 5 -3 10 -9 6 -10 10 -3 10 6 0 15 -5 18 -10z m80 -45 c-1 -14 -5
-28 -8 -32 -4 -3 2 -17 13 -30 15 -20 17 -29 9 -45 -8 -15 -7 -24 4 -36 7 -9
13 -30 12 -47 0 -16 3 -35 8 -42 12 -16 2 -29 -25 -36 l-23 -6 22 19 c19 15
20 19 7 24 -11 4 -13 11 -7 19 10 15 10 38 0 55 -7 9 -13 7 -25 -8 -15 -18
-19 -19 -36 -7 -17 12 -21 12 -38 -5 -10 -10 -24 -18 -30 -18 -7 1 -3 9 8 19
l22 18 -22 14 c-25 16 -54 20 -62 7 -3 -4 -10 -5 -16 -2 -15 9 11 24 43 24 14
0 33 -8 42 -18 10 -11 29 -17 51 -17 46 1 53 10 31 35 -10 11 -13 20 -7 20 7
0 12 -6 12 -12 0 -7 5 -5 11 6 9 14 7 22 -10 39 -17 18 -23 19 -33 8 -11 -11
-10 -13 0 -7 14 8 42 -10 42 -27 0 -5 -8 -3 -17 5 -10 9 -23 13 -30 11 -9 -3
-11 5 -7 29 3 18 6 39 6 46 1 9 8 8 27 -5 20 -13 23 -13 14 -1 -7 8 -10 18 -6
21 13 14 21 6 18 -18z m52 -74 c1 -11 -5 -25 -12 -31 -11 -9 -13 -6 -10 17 5
35 4 33 13 33 4 0 8 -9 9 -19z m-92 -22 c-3 -8 -16 -15 -28 -16 l-22 -2 24 20
c26 21 35 20 26 -2z m-529 -19 c17 0 23 4 18 13 -4 7 -3 9 2 4 5 -5 10 -13 10
-18 1 -5 2 -10 3 -11 2 -2 4 -14 7 -27 4 -20 2 -22 -10 -12 -8 7 -12 19 -9 27
3 8 0 14 -7 14 -6 0 -9 -4 -6 -8 10 -17 -14 -35 -48 -38 -25 -1 -40 3 -47 15
-7 12 -9 12 -6 1 2 -8 0 -23 -5 -33 -12 -23 6 -46 32 -44 10 1 16 5 14 9 -3 4
0 8 5 8 6 0 11 -7 11 -15 0 -8 5 -15 10 -15 7 0 7 6 0 20 -12 22 -10 23 14 14
9 -3 14 -10 11 -15 -3 -4 4 -13 16 -19 13 -7 19 -8 15 -2 -3 6 -2 13 4 17 5 3
10 1 10 -4 0 -6 5 -11 11 -11 6 0 4 9 -5 22 -10 14 -12 27 -6 38 5 9 7 32 4
51 -4 31 -3 32 10 16 8 -10 16 -13 18 -7 2 6 25 12 51 14 43 3 50 0 59 -20 6
-13 15 -24 20 -24 5 0 4 9 -1 19 -8 14 -7 22 6 32 14 12 16 12 8 0 -6 -11 -2
-13 19 -9 19 4 24 2 17 -5 -7 -7 -7 -16 0 -29 14 -26 -5 -23 -26 5 -16 21 -16
21 -1 -5 19 -33 20 -44 3 -30 -7 6 -22 9 -32 7 -11 -2 -24 -4 -28 -4 -5 -1 -5
-6 -2 -12 4 -6 0 -9 -11 -7 -13 2 -19 -3 -19 -17 0 -11 -8 -21 -18 -23 -9 -2
-17 2 -17 8 0 6 5 8 10 5 6 -4 10 -3 9 2 -4 22 4 35 32 52 18 11 26 21 20 26
-6 3 -9 10 -7 14 3 3 -4 7 -15 7 -19 0 -19 -1 -3 -13 10 -7 14 -16 10 -20 -4
-5 -16 2 -26 15 -11 13 -21 18 -25 12 -3 -6 -12 -7 -18 -3 -7 4 -5 -1 3 -12
14 -16 13 -17 -8 -11 -12 4 -22 3 -22 -2 0 -5 12 -9 27 -8 14 0 28 -4 30 -11
3 -8 -6 -10 -25 -7 -21 3 -31 0 -36 -11 -8 -21 2 -38 16 -29 8 5 9 1 5 -10 -4
-9 -3 -15 2 -11 5 3 16 2 25 -1 32 -12 15 -19 -41 -17 -32 1 -87 2 -123 2
-138 -1 -130 1 -126 -25 6 -30 -28 -98 -69 -139 -43 -44 -93 -77 -105 -70 -5
3 -10 1 -10 -4 0 -6 -9 -11 -19 -11 -11 0 -22 -4 -25 -8 -5 -8 -51 -14 -116
-15 -50 -1 -124 13 -131 25 -3 5 -9 9 -13 9 -20 -3 -26 0 -21 9 3 6 1 10 -6
10 -19 0 -79 43 -79 58 0 6 -5 12 -10 12 -6 0 -17 15 -25 33 -8 17 -14 28 -15
23 0 -5 -6 -3 -14 3 -8 7 -12 22 -9 34 4 18 3 19 -7 7 -10 -13 -11 -13 -7 0 2
8 10 15 18 15 8 0 14 -7 14 -15 0 -8 8 -21 18 -28 9 -7 15 -18 12 -23 -4 -5
-1 -17 4 -26 9 -16 10 -15 8 6 -1 13 3 26 9 28 6 2 10 -8 9 -25 -1 -22 3 -28
19 -30 11 0 16 2 10 6 -19 12 -23 40 -9 58 11 16 9 21 -12 37 -17 14 -28 16
-35 9 -12 -12 -2 -32 15 -32 7 0 6 4 -3 10 -8 5 -11 12 -7 16 7 7 37 -13 37
-26 0 -13 -38 -18 -49 -7 -15 15 -14 42 3 56 10 8 19 6 39 -9 18 -15 28 -17
33 -9 4 7 3 9 -4 5 -7 -4 -10 2 -9 14 1 12 6 19 14 16 7 -3 13 -1 13 3 0 5 -7
11 -15 15 -13 5 -20 -5 -16 -26 1 -11 -11 -10 -29 2 -17 10 -22 62 -5 57 5 -3
9 -14 8 -26 -2 -13 1 -20 7 -16 6 3 10 13 10 21 0 17 16 19 26 3 4 -8 10 -6
17 6 7 14 5 21 -9 32 -10 7 -25 11 -32 8 -8 -3 -12 0 -10 7 8 22 27 20 53 -6
22 -22 24 -29 15 -47 -7 -11 -9 -23 -6 -26 3 -4 1 -12 -5 -20 -9 -9 -8 -13 0
-13 11 0 15 13 11 39 -1 13 1 13 14 2 13 -11 14 -17 4 -30 -7 -9 3 -2 23 14
20 17 34 33 33 36 -6 11 24 31 51 34 14 1 36 -6 48 -16 12 -10 18 -18 13 -19
-4 0 2 -8 15 -19 21 -17 22 -21 9 -37 -14 -18 -14 -18 7 0 l22 18 -22 18 c-12
10 -19 21 -15 25 10 11 51 -32 45 -47 -3 -9 3 -15 16 -16 14 -1 17 2 9 7 -18
11 -21 67 -5 91 8 11 19 18 24 15 13 -9 11 -25 -3 -22 -17 3 -19 -63 -2 -70 8
-3 11 -10 7 -17 -3 -6 -2 -7 2 -3 16 14 14 41 -2 59 -9 10 -14 21 -11 24 12
11 45 -46 42 -72 l-2 -26 22 21 c27 25 44 28 25 4 -12 -15 -12 -16 1 -8 8 5
22 8 32 7 9 -2 19 2 23 8 3 5 11 10 17 10 6 0 5 -7 -3 -17 -12 -14 -12 -16 1
-8 24 15 52 13 46 -2 -4 -8 -1 -11 5 -8 6 4 8 13 5 21 -3 7 2 17 10 22 9 5 15
13 14 18 -1 5 3 10 9 12 5 2 9 -5 7 -15 -3 -13 2 -19 14 -19 10 0 17 4 14 7
-2 4 0 10 6 14 5 3 10 1 10 -4 0 -6 5 -11 11 -11 6 0 4 9 -5 22 -10 14 -12 27
-6 38 5 9 7 25 5 36 -2 10 -4 23 -4 28 -1 5 -7 3 -14 -3 -8 -6 -18 -7 -22 -3
-5 4 -5 2 -2 -4 3 -6 -1 -20 -9 -32 -12 -18 -19 -20 -35 -11 -11 5 -25 21 -31
34 -6 14 -15 22 -19 19 -5 -3 -9 0 -9 5 0 20 18 11 44 -21 21 -27 28 -30 38
-20 11 11 10 16 -6 27 -10 8 -23 12 -27 9 -5 -3 -9 -2 -9 3 0 10 114 9 117 -1
3 -10 31 -36 39 -36 3 0 1 7 -6 15 -6 8 -10 20 -7 27 3 8 10 2 17 -14 7 -16
17 -28 22 -28 5 0 5 8 0 18 -5 9 -7 24 -4 32 4 11 7 11 10 3 2 -7 15 -13 28
-13z m-890 -8 c-3 -3 1 -14 11 -24 17 -19 15 -32 -4 -20 -7 4 -14 20 -17 35
-3 17 -1 25 5 21 6 -3 8 -9 5 -12z m38 -31 c-8 -10 -32 22 -27 35 4 12 8 10
18 -8 6 -13 10 -25 9 -27z m74 40 c7 -1 11 -5 8 -10 -4 -5 -23 -8 -43 -6 -33
2 -35 1 -18 -11 10 -8 22 -14 27 -14 4 0 8 -5 8 -11 0 -5 -4 -7 -10 -4 -5 3
-10 1 -10 -5 0 -7 6 -10 13 -7 6 2 11 12 11 21 -1 10 4 15 14 14 9 -2 17 3 18
10 1 6 2 16 3 20 3 24 81 -13 81 -39 0 -8 -36 -5 -61 5 -17 8 -47 -20 -35 -32
8 -7 13 -8 41 -11 8 0 15 -5 15 -10 0 -14 -50 -6 -60 9 -5 9 -9 9 -14 1 -4 -6
-11 -9 -16 -6 -5 3 -11 -3 -15 -14 -3 -11 -12 -24 -19 -30 -11 -9 -13 -6 -13
13 0 14 4 24 10 23 6 -1 12 11 13 28 2 20 0 25 -5 16 -5 -8 -7 -19 -5 -25 3
-7 -5 -12 -16 -13 -21 -2 -20 7 7 39 10 11 11 18 4 23 -6 3 -11 12 -11 18 0
11 10 12 78 8z m226 -8 c16 -9 16 -10 0 -23 -14 -13 -19 -12 -34 8 -11 13 -21
18 -25 12 -3 -6 -11 -7 -17 -4 -5 4 -3 -5 6 -18 9 -14 13 -29 9 -34 -4 -5 -1
-4 6 3 12 10 12 15 1 28 -8 9 -8 15 -2 15 6 0 18 -10 26 -22 l16 -22 16 22 c8
12 20 22 26 22 6 0 6 -6 -2 -15 -11 -13 -11 -18 0 -28 8 -8 11 -8 7 -1 -4 7 3
24 15 40 13 15 16 24 8 20 -11 -7 -12 -6 -4 3 13 14 67 4 58 -11 -4 -5 -10 -5
-18 1 -8 7 -16 4 -26 -12 -22 -34 -20 -53 6 -52 29 0 39 10 12 12 -11 1 -23 4
-26 7 -7 7 18 36 30 36 6 0 5 -7 -2 -15 -7 -8 -9 -15 -4 -15 5 0 19 15 31 32
l23 32 -3 -32 c-1 -18 -7 -30 -12 -28 -10 3 -14 -10 -16 -57 0 -16 -2 -16 -16
-2 -9 9 -22 14 -29 11 -8 -3 -14 -1 -14 4 0 9 -36 24 -60 24 -32 0 -56 -15
-72 -45 -15 -25 -20 -28 -31 -17 -8 7 -14 20 -14 28 0 8 -4 23 -8 33 -4 10 -4
17 1 16 31 -5 36 2 16 24 -12 13 -22 25 -22 28 0 8 127 2 144 -8z m40 0 c4
-11 1 -11 -14 -3 -24 13 -25 17 -5 17 8 0 16 -6 19 -14z m122 -9 c-9 -23 4
-46 19 -34 9 8 13 5 13 -13 0 -15 -7 -23 -19 -24 -11 -1 -17 3 -13 8 3 6 -2
19 -11 29 -14 15 -15 23 -6 33 6 8 7 18 3 22 -4 5 -1 5 6 1 7 -5 11 -14 8 -22z
m49 16 c0 -1 15 -3 32 -4 22 -3 31 0 27 8 -3 6 1 3 9 -6 8 -10 19 -18 26 -18
12 0 12 -1 16 -37 2 -24 -9 -31 -20 -12 -4 6 -14 8 -22 5 -9 -4 -13 -1 -10 6
2 7 15 12 28 10 23 -3 23 -2 4 12 -12 8 -21 10 -24 5 -1 -6 -12 -2 -22 7 -16
14 -22 15 -32 5 -9 -11 -9 -14 1 -18 6 -3 12 -9 12 -14 0 -6 -4 -7 -10 -4 -5
3 -10 1 -10 -4 0 -6 4 -11 9 -11 17 0 23 20 11 35 -7 9 -8 15 -2 15 23 0 32
-26 16 -48 -8 -12 -19 -20 -24 -17 -10 6 -21 -21 -14 -38 3 -8 -3 -20 -12 -28
-15 -12 -16 -12 -10 8 4 12 2 24 -4 28 -14 9 -13 26 2 23 8 -2 13 14 14 47 0
28 -1 44 -3 37 -3 -6 -9 -10 -14 -6 -16 9 -10 22 9 19 9 -2 17 -4 17 -5z m636
-10 c6 0 8 3 6 8 -3 4 14 7 38 7 29 0 40 -3 35 -10 -5 -6 -5 -17 0 -25 7 -11
11 -11 24 -1 9 8 16 9 16 3 0 -13 -25 -33 -33 -26 -3 3 -15 1 -26 -6 -18 -9
-25 -7 -47 15 -25 25 -40 33 -29 15 3 -5 2 -10 -4 -10 -14 0 -19 23 -7 36 6 7
13 8 14 3 2 -5 8 -9 13 -9z m-471 -21 c0 -14 -17 -10 -23 5 -4 10 -1 13 9 9 7
-3 14 -9 14 -14z m-190 1 c0 -5 -4 -10 -10 -10 -5 0 -10 5 -10 10 0 6 5 10 10
10 6 0 10 -4 10 -10z m244 -17 c-3 -16 -6 -37 -8 -47 -1 -11 -7 -21 -13 -23
-15 -5 -12 30 4 49 10 11 11 18 3 23 -11 7 -4 25 10 25 4 0 6 -12 4 -27z m256
12 c7 -8 8 -15 2 -15 -5 0 -15 7 -22 15 -7 8 -8 15 -2 15 5 0 15 -7 22 -15z
m320 1 c9 -12 8 -15 -9 -13 -12 1 -21 7 -21 14 0 17 15 16 30 -1z m-163 -26
c-1 -11 -6 -19 -12 -19 -32 4 -38 -1 -23 -18 9 -10 13 -25 10 -33 -4 -12 -2
-13 9 -2 10 9 10 15 1 24 -7 7 -12 17 -12 23 1 5 9 -1 20 -14 11 -12 17 -28
13 -35 -4 -6 1 -5 10 3 14 11 17 11 17 -1 0 -10 -12 -14 -45 -13 -24 1 -48 4
-51 8 -4 3 -16 2 -27 -4 -14 -8 -18 -8 -13 0 9 14 0 14 -24 1 -21 -11 -36 2
-25 20 5 8 11 7 21 -1 11 -9 15 -8 20 5 3 9 10 16 16 16 5 0 6 -4 3 -10 -3 -5
-1 -10 5 -10 7 0 10 7 6 15 -3 8 -2 15 3 15 5 0 14 -7 21 -15 9 -11 9 -15 1
-15 -7 0 -9 -5 -5 -11 4 -8 9 -7 14 2 5 7 1 22 -8 34 -15 21 -19 21 -39 8 -22
-15 -30 -8 -15 12 10 14 39 17 47 5 4 -7 16 -3 32 10 32 25 32 25 30 0z m-442
-8 c-11 -9 -31 -32 -44 -50 -22 -31 -24 -32 -45 -18 -20 12 -23 12 -32 -2 -16
-24 -47 -8 -39 20 5 18 4 19 -4 8 -5 -8 -14 -11 -18 -6 -4 5 -2 11 5 13 7 3
19 11 27 19 8 8 16 16 18 17 1 1 15 -6 30 -16 26 -17 33 -13 28 16 -1 10 7 9
29 -3 13 -7 21 -6 30 5 7 8 18 15 24 15 6 -1 2 -8 -9 -18z m180 -17 c-1 -16
-6 -30 -11 -32 -14 -5 -14 28 0 47 6 8 1 6 -12 -4 -12 -11 -22 -14 -22 -8 0 7
-14 3 -34 -9 -37 -22 -55 -12 -36 18 10 16 11 16 6 1 -3 -12 -1 -15 10 -11 7
3 14 9 14 13 0 5 11 7 25 5 14 -1 28 2 31 7 11 18 29 1 29 -27z m412 10 c0
-11 -4 -25 -9 -31 -5 -7 -2 -16 6 -23 11 -9 15 -8 20 4 6 17 26 11 26 -7 0 -6
-3 -8 -7 -5 -3 4 -14 0 -24 -9 -17 -15 -19 -15 -35 0 -12 12 -20 14 -29 6 -9
-8 -15 -8 -20 0 -9 14 -27 13 -20 -2 4 -7 -1 -4 -10 7 -9 11 -21 19 -26 18 -9
-3 -10 -2 -14 35 -2 23 9 30 20 11 4 -6 14 -8 22 -5 9 4 13 1 10 -6 -2 -7 -15
-12 -28 -11 l-24 3 25 -15 c31 -18 41 -19 39 -2 -4 32 2 49 16 44 8 -4 17 -2
20 3 11 17 43 6 42 -15z m139 8 c0 -10 -5 -21 -10 -25 -6 -4 -4 -13 3 -22 15
-17 4 -21 -18 -7 -12 8 -12 12 -2 25 11 12 11 16 1 16 -10 0 -10 3 0 15 17 20
28 19 26 -2z m-1459 -5 c-2 -7 2 -21 11 -30 11 -13 12 -18 2 -18 -10 0 -10 -3
0 -15 9 -11 16 -12 31 -2 10 6 19 17 19 24 0 7 5 13 10 13 14 0 13 -13 -2 -28
-9 -9 -9 -12 2 -12 12 0 12 -2 0 -14 -30 -29 -78 -4 -71 37 0 4 -4 7 -11 7 -6
0 -8 3 -5 6 3 4 2 15 -4 25 -8 15 -6 19 6 19 9 0 15 -6 12 -12z m990 -13 c-4
-11 -47 -16 -47 -5 0 11 8 16 30 16 11 0 19 -5 17 -11z m428 -25 c0 -18 -5
-35 -10 -37 -6 -2 -10 14 -10 37 0 23 4 39 10 37 5 -2 10 -19 10 -37z m-365
-2 c0 -6 -7 -5 -15 2 -8 7 -15 17 -15 22 0 6 7 5 15 -2 8 -7 15 -17 15 -22z
m-570 -18 c0 -5 -4 -10 -10 -10 -5 0 -10 5 -10 10 0 6 5 10 10 10 6 0 10 -4
10 -10z m959 -214 c9 -11 6 -13 -14 -13 -26 0 -34 12 -12 20 6 3 13 6 13 6 1
1 7 -5 13 -13z m-22 -23 c6 4 18 -2 27 -12 15 -17 15 -18 -10 -29 -25 -12 -44
-9 -44 7 0 5 11 7 25 6 14 -2 23 1 19 6 -3 5 -17 7 -31 5 -18 -4 -23 -1 -19 9
3 9 0 12 -9 8 -13 -4 -13 -8 0 -26 9 -12 11 -26 6 -36 -5 -9 -7 -32 -6 -51 1
-19 -3 -39 -9 -43 -7 -6 -7 -7 2 -5 8 2 14 8 14 13 0 6 4 16 10 23 6 6 6 12 1
12 -5 0 -9 10 -10 23 l-2 22 20 -24 c10 -13 19 -17 19 -10 0 7 3 9 7 5 5 -4 0
-13 -10 -20 -9 -7 -18 -25 -19 -38 -1 -17 -7 -25 -18 -23 -8 2 -21 4 -29 4 -9
1 -11 7 -6 19 12 29 16 73 5 67 -15 -10 -12 5 5 22 18 18 14 39 -6 36 -8 -2
-15 6 -16 16 -1 12 3 18 11 15 7 -3 19 2 26 11 11 14 14 14 25 -1 6 -10 17
-14 22 -11z m-90 -34 c2 -16 -2 -17 -17 -9 -29 16 -32 28 -7 28 15 0 23 -7 24
-19z m19 -28 c-14 -15 -15 -24 -7 -39 6 -11 8 -22 5 -25 -3 -2 -6 -17 -8 -33
-2 -15 -8 -30 -14 -32 -7 -2 -9 7 -5 25 3 15 5 37 5 48 -1 11 -2 28 -2 38 -1
9 -6 15 -11 11 -6 -3 -8 -12 -5 -20 6 -16 -10 -19 -19 -4 -9 15 15 42 31 36 7
-3 18 2 25 10 6 8 14 12 17 9 3 -3 -3 -14 -12 -24z m-111 -1 c3 -5 1 -10 -4
-10 -6 0 -11 5 -11 10 0 6 2 10 4 10 3 0 8 -4 11 -10z m170 0 c3 -5 1 -10 -4
-10 -6 0 -11 5 -11 10 0 6 2 10 4 10 3 0 8 -4 11 -10z m-96 -50 c9 0 11 -6 6
-17 -5 -10 -8 -26 -9 -35 0 -10 -4 -18 -8 -18 -14 0 -19 20 -8 40 7 13 7 20 0
20 -5 0 -10 -7 -10 -15 0 -8 -2 -15 -4 -15 -2 0 -12 -3 -20 -6 -12 -5 -15 -2
-10 10 3 9 1 16 -6 16 -6 0 -8 -4 -5 -10 3 -5 1 -10 -4 -10 -6 0 -11 4 -11 8
0 5 -12 14 -27 21 -22 10 -24 14 -12 22 19 12 32 11 24 -1 -3 -5 -3 -10 2 -11
4 0 17 -2 27 -4 11 -2 27 0 35 5 10 6 11 10 4 10 -7 0 -13 5 -13 12 0 6 7 4
18 -5 10 -10 24 -17 31 -17z m-92 -40 c23 -17 43 -26 45 -21 1 5 19 -3 38 -19
34 -28 34 -30 17 -47 -17 -17 -18 -17 -15 6 4 29 -14 37 -35 16 -17 -17 -31
-20 -22 -5 3 6 1 10 -5 10 -14 0 -8 -22 7 -27 6 -2 18 4 27 13 9 9 20 13 24 9
4 -4 -4 -15 -17 -26 -21 -17 -26 -18 -45 -6 -18 12 -22 12 -38 -7 -9 -12 -17
-16 -18 -10 0 5 9 20 20 32 12 12 18 22 14 22 -4 0 -17 -11 -29 -24 -16 -17
-19 -28 -12 -35 7 -7 3 -9 -12 -8 -28 2 -27 7 12 50 24 28 38 36 56 32 13 -2
31 0 40 5 12 7 7 8 -16 5 -25 -3 -34 1 -38 16 -6 17 -8 18 -28 4 -14 -10 -24
-11 -33 -4 -22 18 -24 -8 -3 -35 11 -14 16 -26 10 -26 -5 0 -16 9 -23 19 -10
14 -18 17 -28 10 -13 -7 -12 -9 1 -9 32 0 41 -25 20 -51 -19 -23 -20 -23 -38
-6 -17 17 -17 18 6 15 31 -4 38 17 12 32 -14 7 -21 7 -21 0 0 -5 7 -10 15 -10
8 0 15 -5 15 -11 0 -6 -8 -8 -18 -4 -11 3 -30 -3 -45 -16 -15 -11 -27 -16 -27
-10 0 5 9 16 20 24 11 8 18 17 15 20 -3 4 -2 5 1 3 8 -6 74 69 74 85 0 8 6 5
14 -7 11 -14 18 -16 26 -8 9 9 9 14 -1 19 -8 5 -10 4 -5 -3 4 -7 2 -12 -3 -12
-6 0 -11 7 -11 15 0 22 11 19 57 -15z m-35 -32 c21 21 32 13 13 -8 -23 -26
-32 -25 -46 3 -11 20 -11 21 5 8 13 -11 20 -11 28 -3z m178 -32 c0 -3 -4 -8
-10 -11 -5 -3 -10 -1 -10 4 0 6 5 11 10 11 6 0 10 -2 10 -4z m-97 -48 c9 0 17
-4 17 -9 0 -6 -4 -8 -9 -5 -12 8 -22 -20 -15 -39 4 -8 10 -12 15 -9 5 3 9 1 9
-4 0 -5 -11 -9 -24 -9 -20 0 -23 4 -20 33 1 19 -1 36 -5 39 -4 2 -9 -14 -10
-35 -3 -67 -5 -80 -13 -80 -4 0 -8 5 -8 11 0 6 -8 8 -19 4 -14 -4 -23 0 -30
14 -14 26 -14 26 10 28 17 2 18 -1 9 -13 -9 -10 -9 -14 -1 -14 6 0 11 6 11 13
0 8 4 7 10 -3 10 -16 11 -15 15 39 2 22 0 29 -6 20 -5 -8 -6 -23 -3 -34 6 -19
5 -19 -12 -3 -17 17 -17 19 6 43 15 16 30 23 40 19 8 -4 23 -6 33 -6z m-177
-26 c1 -25 -6 -28 -26 -9 -12 10 -12 9 -2 -4 10 -13 9 -21 -8 -40 l-20 -24
-20 24 c-11 12 -17 28 -13 34 3 6 1 7 -5 3 -9 -5 -9 -13 -2 -26 12 -23 13 -30
1 -30 -11 0 -21 38 -14 56 3 8 11 14 19 14 8 0 14 5 14 11 0 8 5 7 16 -2 13
-11 17 -10 26 5 13 22 33 15 34 -12z m74 -12 c0 -9 -9 -16 -19 -17 -15 -1 -18
3 -14 15 4 10 -3 7 -16 -8 -19 -22 -21 -23 -19 -5 5 33 68 47 68 15z m-201
-56 c-6 -8 -14 -12 -17 -9 -3 2 1 11 8 20 7 8 8 15 2 15 -12 0 -24 -29 -16
-41 3 -5 10 -7 15 -4 5 4 9 1 9 -4 0 -6 5 -11 11 -11 8 0 8 4 1 13 -9 10 1 13
48 13 57 0 73 -7 49 -21 -6 -4 -8 -14 -5 -22 4 -9 1 -13 -6 -10 -7 2 -12 15
-11 28 1 13 -1 18 -4 11 -3 -9 -9 -10 -17 -3 -8 6 -17 6 -26 0 -12 -8 -11 -9
4 -7 10 2 21 -2 23 -8 2 -6 -13 -10 -38 -9 -34 1 -46 7 -65 31 -13 16 -24 24
-24 17 0 -6 5 -15 10 -18 14 -9 12 -25 -2 -22 -9 1 -13 -17 -14 -63 -1 -81 -8
-99 -40 -95 -14 1 -27 5 -31 9 -3 3 -12 1 -19 -5 -7 -6 -19 -7 -25 -3 -19 11
29 26 50 15 31 -17 46 4 48 71 3 85 7 106 21 120 7 7 12 9 12 5 0 -4 10 1 22
13 19 18 23 18 31 5 5 -10 4 -22 -4 -31z m131 17 c8 -17 7 -20 -10 -18 -11 1
-20 2 -20 3 0 7 13 34 16 34 2 0 8 -9 14 -19z m74 -51 c-3 -2 -9 1 -13 9 -11
17 -22 -10 -16 -40 2 -12 -3 -31 -13 -43 -13 -17 -27 -21 -67 -20 -27 0 -57
-3 -65 -7 -8 -4 -24 -3 -35 2 -16 8 -15 6 4 -11 13 -11 30 -19 38 -16 7 3 13
2 13 -2 -1 -51 -71 -3 -75 52 -3 32 -1 35 15 26 27 -15 38 -35 14 -26 -14 5
-16 4 -8 -4 8 -8 18 -9 30 -3 11 5 38 8 62 7 40 -2 42 -1 23 13 -12 8 -26 11
-31 8 -6 -3 -13 1 -16 9 -5 14 -8 14 -30 -1 -23 -15 -31 -9 -16 13 13 18 102
2 102 -19 0 -6 3 -8 6 -5 3 4 1 15 -5 26 -8 16 -6 25 9 45 11 13 17 27 14 30
-3 3 -3 11 2 18 5 8 16 2 35 -22 15 -19 25 -36 23 -39z m-284 9 c0 -6 -7 -8
-16 -5 -10 4 -13 2 -7 -7 4 -6 9 -20 10 -31 3 -16 1 -17 -12 -6 -12 10 -13 15
-3 21 15 10 -54 5 -73 -5 -8 -4 -5 0 5 8 11 9 28 16 37 16 10 0 21 5 24 10 8
14 35 13 35 -1z m-975 -19 c0 -1 7 -3 15 -5 38 -8 45 -11 52 -19 3 -5 15 -10
25 -11 10 -1 29 -5 42 -9 18 -6 22 -5 16 5 -5 8 1 6 12 -4 11 -9 23 -14 28
-10 4 5 5 2 1 -4 -4 -7 -2 -13 3 -13 6 0 11 6 11 13 0 9 2 9 8 0 4 -6 18 -11
32 -11 63 0 167 -9 176 -14 5 -4 16 -3 24 3 22 13 34 11 21 -4 -6 -8 -8 -16
-5 -19 2 -3 -7 -5 -20 -5 -14 0 -23 3 -21 8 3 4 1 10 -4 13 -5 4 -12 2 -16 -3
-3 -6 -13 -8 -23 -5 -15 5 -15 4 -1 -5 19 -12 20 -72 3 -78 -7 -2 -10 9 -9 31
4 43 -19 66 -60 61 -17 -1 -36 2 -42 7 -9 7 -13 7 -13 0 0 -6 -18 -9 -42 -7
-27 2 -37 0 -28 -5 8 -5 18 -6 22 -4 4 3 8 1 8 -4 0 -13 -39 -46 -46 -39 -4 4
1 9 10 13 24 9 1 34 -27 28 -46 -11 -52 -9 -49 11 2 16 1 17 -7 5 -5 -8 -13
-11 -17 -7 -4 3 -1 14 7 23 12 14 14 14 26 -2 7 -9 10 -21 6 -27 -3 -6 -1 -7
5 -3 6 3 10 15 9 26 -1 10 -4 17 -8 14 -4 -2 -11 0 -14 6 -5 8 -11 7 -21 -1
-11 -9 -15 -8 -20 5 -5 14 -9 14 -22 4 -14 -11 -15 -10 -8 7 6 16 5 17 -5 8
-10 -10 -9 -15 1 -28 15 -18 0 -21 -18 -3 -7 7 -12 9 -12 5 0 -4 -9 -3 -21 3
-11 7 -18 17 -16 25 3 7 0 18 -6 24 -9 9 -5 10 13 7 14 -2 25 -5 25 -6z m1058
-19 c8 -8 7 -11 -6 -11 -9 0 -17 5 -17 12 0 6 -6 3 -14 -8 -10 -14 -11 -21 -3
-26 6 -4 8 -10 4 -14 -11 -11 -19 2 -23 35 -3 26 -1 29 22 26 14 -1 30 -7 37
-14z m-227 -18 c-2 -15 -9 -29 -16 -31 -7 -3 -10 0 -6 6 3 5 -1 13 -9 16 -12
4 -13 1 -7 -12 5 -9 7 -28 6 -42 -1 -15 6 -32 19 -43 21 -17 21 -18 2 -15 -23
4 -49 34 -40 48 3 5 0 7 -8 4 -10 -4 -14 2 -12 18 1 13 4 24 5 26 1 1 3 8 4
15 1 6 10 11 21 10 11 -1 24 5 28 13 12 21 16 17 13 -13z m53 16 c26 14 65 -3
57 -25 -7 -19 4 -45 16 -38 6 4 9 1 6 -6 -8 -24 -23 -21 -36 8 -25 51 -25 53
-6 46 15 -5 16 -4 5 4 -10 7 -21 6 -37 -5 -13 -8 -28 -12 -35 -8 -8 6 -8 2 0
-13 14 -27 14 -28 -9 -28 -21 0 -26 11 -10 21 6 4 8 10 5 15 -3 4 -2 16 1 25
5 12 9 13 14 5 6 -9 13 -9 29 -1z m411 1 c0 -5 -4 -10 -10 -10 -5 0 -10 5 -10
10 0 6 5 10 10 10 6 0 10 -4 10 -10z m-176 -29 c3 -5 -6 -8 -20 -8 -19 0 -22
2 -13 8 18 11 26 11 33 0z m-219 -11 c-3 -5 -13 -10 -21 -10 -8 0 -12 5 -9 10
3 6 13 10 21 10 8 0 12 -4 9 -10z m65 0 c0 -5 -4 -10 -10 -10 -5 0 -10 5 -10
10 0 6 5 10 10 10 6 0 10 -4 10 -10z m-387 -14 c3 4 5 -3 4 -15 -1 -11 -8 -21
-15 -21 -9 0 -12 6 -8 18 4 9 -5 2 -19 -15 -15 -18 -31 -33 -37 -33 -6 0 -4 8
4 18 16 18 14 42 -4 42 -6 0 -4 -7 3 -17 12 -15 12 -16 -3 -10 -12 4 -15 2
-11 -9 3 -8 2 -14 -3 -13 -20 3 -35 -2 -29 -10 7 -12 -35 -42 -48 -34 -6 3 -7
1 -3 -5 4 -6 12 -9 19 -6 8 3 13 -3 13 -15 0 -12 -7 -19 -17 -18 -10 1 -15 5
-13 9 3 4 2 14 -3 21 -10 16 -11 87 -1 93 5 3 7 0 6 -8 -2 -8 7 -13 25 -13 15
0 26 3 25 7 -5 15 43 41 54 30 13 -13 40 -3 31 12 -4 7 -1 7 9 -1 8 -7 18 -10
21 -7z m344 -12 c2 -5 -5 -11 -14 -12 -63 -6 -84 -9 -89 -15 -3 -3 13 -4 37
-1 24 3 50 5 57 4 40 -2 52 -5 52 -11 0 -12 -24 -17 -42 -8 -20 11 -72 -7 -63
-21 10 -17 -9 -36 -35 -36 -16 0 -29 -8 -37 -24 -7 -14 -13 -23 -14 -20 -15
78 -17 100 -10 100 15 0 21 -13 11 -24 -5 -7 -5 -17 2 -26 8 -12 9 -12 4 3 -4
13 -1 17 12 15 9 -2 19 -6 22 -10 3 -3 13 -1 22 6 16 12 16 14 -6 25 -15 8
-23 22 -23 37 0 15 4 21 11 17 17 -11 39 -9 61 4 21 14 37 13 42 -3z m-628
-18 c6 -4 9 -16 6 -27 -6 -18 4 -24 28 -20 5 1 7 -4 5 -10 -2 -7 -14 -13 -27
-14 -14 -1 -20 3 -17 11 3 7 -2 18 -10 24 -19 17 -18 31 4 24 14 -5 14 -4 2 4
-9 7 -19 7 -26 2 -11 -10 -24 -4 -24 11 0 9 42 5 59 -5z m320 5 c11 -7 10 -11
-7 -20 -18 -10 -21 -8 -19 9 1 22 5 24 26 11z m107 -46 c1 -27 -1 -44 -3 -37
-3 8 -11 5 -23 -10 l-19 -23 2 23 c1 12 10 25 20 28 14 4 16 9 6 20 -8 10 -8
14 0 14 6 0 11 5 11 11 0 8 -4 8 -14 -1 -8 -6 -12 -19 -9 -28 6 -15 5 -15 -11
-3 -11 9 -13 18 -7 24 5 5 7 15 5 22 -4 9 3 12 18 11 22 -1 24 -6 24 -51z
m420 40 c19 -16 5 -26 -19 -13 -12 7 -29 11 -37 10 -13 -3 -13 -2 0 7 17 12
40 10 56 -4z m-541 -26 c50 17 68 2 69 -54 1 -23 5 -29 19 -27 9 2 17 -1 17
-6 0 -5 -25 -9 -55 -8 -30 0 -55 4 -55 9 0 4 4 6 8 3 4 -2 9 5 9 16 1 12 8 25
15 31 9 6 7 7 -7 2 -23 -8 -24 -8 -47 -6 -10 0 -18 6 -18 12 0 6 7 8 16 5 8
-3 24 -1 34 4 14 7 23 6 34 -6 9 -8 16 -11 16 -5 0 18 -34 30 -53 20 -11 -6
-23 -6 -35 0 -14 8 -18 6 -19 -10 -2 -21 31 -44 49 -33 6 4 9 1 6 -6 -2 -8 -9
-15 -16 -18 -16 -5 -65 46 -56 60 4 7 3 8 -4 4 -9 -5 -9 -13 -2 -26 12 -22 13
-30 3 -29 -20 3 -34 -2 -29 -10 3 -5 0 -11 -7 -14 -8 -3 -14 3 -14 14 -1 10 4
19 12 19 8 0 17 5 21 11 4 7 0 9 -14 5 -24 -8 -37 8 -24 30 6 11 11 13 16 5 4
-6 2 -11 -5 -11 -7 0 -10 -3 -6 -6 7 -7 67 27 67 39 0 4 10 2 23 -5 12 -7 27
-11 32 -9z m413 -14 c0 -13 -4 -23 -8 -20 -4 3 -13 -2 -20 -10 -7 -8 -16 -12
-21 -9 -11 6 -12 24 -1 23 18 -3 35 2 29 8 -6 5 10 33 18 33 1 0 3 -11 3 -25z
m-438 -75 c0 -5 -4 -10 -10 -10 -5 0 -10 5 -10 10 0 6 5 10 10 10 6 0 10 -4
10 -10z"/>
<path d="M10090 6461 c0 -8 -7 -11 -17 -6 -15 5 -16 4 -5 -6 9 -10 15 -10 24
-1 6 6 9 15 5 19 -4 3 -7 1 -7 -6z"/>
<path d="M10395 6460 c3 -5 8 -10 11 -10 2 0 4 5 4 10 0 6 -5 10 -11 10 -5 0
-7 -4 -4 -10z"/>
<path d="M10376 6442 c-4 -7 -5 -12 -2 -12 2 0 11 -3 20 -6 9 -3 16 -1 16 6 0
6 -4 9 -9 6 -5 -4 -11 -1 -13 6 -3 9 -6 9 -12 0z"/>
<path d="M10420 6420 c0 -5 4 -10 9 -10 11 0 7 -32 -5 -53 -5 -8 -2 -7 10 2 9
8 14 21 11 28 -3 9 0 13 7 10 7 -2 12 -14 10 -26 -2 -20 -1 -21 14 -7 21 21
35 20 28 -1 -5 -15 -4 -16 5 -3 7 9 14 11 19 5 4 -5 16 -10 28 -11 16 -1 21 4
20 20 -1 12 -8 20 -15 18 -8 -2 -11 3 -8 11 3 9 -5 13 -34 12 -21 -1 -42 -4
-45 -8 -4 -4 -18 0 -31 8 -13 9 -23 11 -23 5z m118 -28 c8 -7 18 -10 23 -7 5
4 9 2 9 -4 0 -19 -17 -20 -48 -1 -18 11 -32 15 -32 9 0 -5 -5 -7 -11 -3 -8 4
-7 9 2 15 18 11 40 7 57 -9z"/>
<path d="M10582 6400 c7 -11 17 -20 22 -20 5 0 1 9 -9 20 -10 11 -20 20 -22
20 -2 0 2 -9 9 -20z"/>
<path d="M10364 6399 c-3 -5 -2 -9 3 -8 32 5 44 -2 38 -23 -5 -19 -4 -20 5 -6
5 9 8 22 5 30 -6 16 -42 21 -51 7z"/>
<path d="M10367 6367 c-3 -8 0 -14 7 -14 7 0 13 6 13 14 0 7 -4 13 -8 13 -4 0
-9 -6 -12 -13z"/>
<path d="M10237 6365 c-17 -17 -31 -20 -22 -5 3 6 1 10 -5 10 -14 0 -8 -22 7
-27 6 -2 18 3 26 12 17 17 31 20 22 5 -3 -5 -1 -10 5 -10 14 0 8 22 -7 27 -6
2 -18 -3 -26 -12z"/>
<path d="M10140 6359 c0 -5 5 -7 10 -4 6 3 10 8 10 11 0 2 -4 4 -10 4 -5 0
-10 -5 -10 -11z"/>
<path d="M10090 6320 c0 -5 5 -10 11 -10 5 0 7 5 4 10 -3 6 -8 10 -11 10 -2 0
-4 -4 -4 -10z"/>
<path d="M9964 6289 c-3 -5 3 -6 12 -2 10 3 15 2 12 -3 -3 -5 1 -15 9 -23 12
-11 14 -10 11 4 -2 10 2 20 9 22 7 3 10 -5 9 -21 -2 -17 1 -23 10 -19 9 3 12
-2 9 -14 -2 -12 2 -20 10 -20 8 0 11 5 7 11 -3 6 -7 17 -9 25 -1 8 -7 17 -13
21 -7 4 -11 11 -11 16 2 11 -58 14 -65 3z"/>
<path d="M9927 6236 c-3 -8 -2 -18 3 -21 13 -8 20 9 11 24 -6 10 -10 9 -14 -3z"/>
<path d="M9986 6232 c-3 -5 1 -9 9 -9 8 0 15 4 15 9 0 4 -4 8 -9 8 -6 0 -12
-4 -15 -8z"/>
<path d="M11260 6323 c0 -6 8 -17 18 -24 16 -13 16 -13 2 6 -8 11 -16 22 -17
24 -2 2 -3 0 -3 -6z"/>
<path d="M11325 6140 c3 -5 8 -10 11 -10 2 0 4 5 4 10 0 6 -5 10 -11 10 -5 0
-7 -4 -4 -10z"/>
<path d="M11326 6002 c-2 -4 4 -9 15 -9 11 -1 17 2 14 8 -7 11 -22 12 -29 1z"/>
<path d="M10791 5884 c0 -11 3 -14 6 -6 3 7 2 16 -1 19 -3 4 -6 -2 -5 -13z"/>
<path d="M10205 5812 c-9 -9 -6 -22 6 -22 5 0 7 5 4 10 -3 6 -2 10 4 10 5 0
12 -6 15 -12 5 -10 7 -10 12 0 3 6 10 12 15 12 6 0 7 -4 4 -10 -3 -5 -1 -10 5
-10 7 0 10 6 8 12 -4 12 -62 20 -73 10z"/>
<path d="M10175 5772 c-9 -10 -5 -20 11 -26 14 -5 15 -4 5 8 -9 11 -7 14 14
14 14 0 25 -5 25 -10 0 -5 5 -6 10 -3 6 3 10 1 10 -4 0 -6 5 -11 11 -11 8 0 8
4 0 14 -9 11 -6 14 14 14 21 0 23 -3 14 -14 -10 -12 -9 -13 5 -8 35 13 8 29
-52 30 -34 0 -64 -1 -67 -4z"/>
<path d="M10066 5673 c-4 -9 -1 -21 5 -27 9 -8 10 -7 4 3 -4 7 -2 16 5 21 8 5
8 10 2 14 -5 3 -13 -2 -16 -11z"/>
<path d="M10050 5596 c7 -7 14 -6 21 1 9 9 7 12 -9 10 -14 -1 -18 -5 -12 -11z"/>
<path d="M10075 5580 c-3 -5 -1 -10 4 -10 6 0 11 5 11 10 0 6 -2 10 -4 10 -3
0 -8 -4 -11 -10z"/>
<path d="M10065 5900 c-6 -9 1 -14 18 -11 4 0 7 -4 7 -11 0 -6 2 -9 5 -6 7 7
-5 38 -15 38 -5 0 -12 -4 -15 -10z"/>
<path d="M10143 5890 c30 -24 35 -40 13 -40 -8 0 -17 -4 -20 -9 -3 -5 5 -8 17
-7 39 2 28 45 -17 67 -13 6 -11 2 7 -11z"/>
<path d="M10227 5899 c7 -7 15 -10 18 -7 3 3 -2 9 -12 12 -14 6 -15 5 -6 -5z"/>
<path d="M10141 5811 c-7 -5 -9 -11 -5 -14 5 -3 15 1 22 9 14 16 5 18 -17 5z"/>
<path d="M11122 5891 c-18 -11 10 -34 32 -25 13 5 14 9 5 20 -13 16 -19 17
-37 5z m28 -11 c0 -5 -4 -10 -10 -10 -5 0 -10 5 -10 10 0 6 5 10 10 10 6 0 10
-4 10 -10z"/>
<path d="M10593 5812 c-6 -26 -16 -28 -32 -8 -19 22 -46 16 -47 -11 -1 -13 2
-20 7 -17 5 3 9 12 9 20 0 18 14 18 30 -1 7 -8 16 -15 21 -15 11 0 32 40 24
48 -3 3 -8 -4 -12 -16z"/>
<path d="M11206 5835 c-3 -9 -10 -13 -16 -10 -5 3 -10 1 -10 -4 0 -14 13 -14
28 1 9 9 12 9 12 0 0 -6 -9 -16 -20 -22 -11 -6 -20 -16 -20 -23 0 -8 3 -8 9 2
5 8 14 10 21 6 8 -5 11 -4 6 3 -3 6 0 14 8 19 12 7 12 11 1 26 -11 16 -13 16
-19 2z"/>
<path d="M10946 5234 c-9 -23 10 -42 26 -26 10 10 9 16 -4 28 -14 14 -16 14
-22 -2z m24 -14 c0 -5 -4 -10 -10 -10 -5 0 -10 5 -10 10 0 6 5 10 10 10 6 0
10 -4 10 -10z"/>
<path d="M11045 5192 c4 -8 0 -21 -10 -32 -12 -13 -14 -23 -7 -36 5 -9 7 -26
4 -38 -3 -12 -1 -18 3 -14 12 11 16 70 5 63 -6 -3 -10 -1 -10 4 0 6 4 11 9 11
15 0 22 33 10 44 -9 8 -10 8 -4 -2z"/>
<path d="M9814 5118 c-5 -8 -1 -9 10 -5 14 5 17 3 12 -8 -8 -21 1 -19 13 3 7
14 6 18 -10 19 -10 1 -22 -3 -25 -9z"/>
<path d="M9986 5082 c-2 -4 -1 -14 3 -21 6 -10 10 -9 14 3 6 16 -8 32 -17 18z"/>
<path d="M10605 5060 c3 -5 8 -10 11 -10 2 0 4 5 4 10 0 6 -5 10 -11 10 -5 0
-7 -4 -4 -10z"/>
<path d="M10244 4998 c3 -17 28 -17 34 0 2 6 -1 12 -8 12 -6 0 -8 -4 -5 -10 3
-5 2 -10 -4 -10 -5 0 -12 5 -14 10 -3 6 -4 5 -3 -2z"/>
<path d="M10465 4950 c-8 -13 3 -30 18 -29 9 0 9 2 0 6 -7 2 -13 9 -13 14 0 6
5 7 10 4 6 -3 10 -1 10 4 0 14 -17 14 -25 1z"/>
<path d="M14045 6470 c-3 -6 1 -7 9 -4 18 7 21 14 7 14 -6 0 -13 -4 -16 -10z"/>
<path d="M13380 6279 c0 -5 5 -7 10 -4 6 3 10 8 10 11 0 2 -4 4 -10 4 -5 0
-10 -5 -10 -11z"/>
<path d="M13460 6270 c-9 -6 -10 -10 -3 -10 6 0 15 5 18 10 8 12 4 12 -15 0z"/>
<path d="M13982 6014 c2 -16 7 -20 22 -16 15 4 17 7 6 10 -8 3 -18 10 -22 16
-4 6 -6 1 -6 -10z"/>
<path d="M13721 6010 c8 -6 8 -9 -2 -13 -8 -3 -4 -4 9 -4 12 1 22 4 22 7 0 3
9 6 20 7 11 1 18 -2 16 -6 -3 -4 1 -8 9 -8 15 0 21 16 8 18 -34 5 -92 4 -82
-1z"/>
<path d="M11420 5996 c0 -2 7 -7 16 -10 8 -3 12 -2 9 4 -6 10 -25 14 -25 6z"/>
<path d="M7815 5920 c-3 -5 -2 -10 4 -10 5 0 13 5 16 10 3 6 2 10 -4 10 -5 0
-13 -4 -16 -10z"/>
<path d="M12980 5919 c0 -5 5 -7 10 -4 6 3 10 8 10 11 0 2 -4 4 -10 4 -5 0
-10 -5 -10 -11z"/>
<path d="M7830 5851 c0 -15 31 -22 48 -10 13 7 13 9 2 6 -8 -2 -23 0 -32 5
-11 5 -18 5 -18 -1z"/>
<path d="M11440 5820 c-12 -7 -12 -11 -2 -20 6 -5 10 -7 7 -4 -3 4 0 13 6 21
13 15 10 16 -11 3z"/>
<path d="M12949 5758 c-6 -13 -5 -68 1 -58 4 6 10 11 14 11 23 -3 28 2 9 11
-13 6 -23 15 -23 20 0 5 5 6 10 3 6 -3 10 -1 10 4 0 9 -18 16 -21 9z"/>
<path d="M11270 5746 c0 -2 9 -6 20 -9 11 -3 18 -1 14 4 -5 9 -34 13 -34 5z"/>
<path d="M12986 5662 c-5 -9 -1 -60 6 -68 3 -2 11 2 18 11 11 13 10 14 -4 9
-13 -5 -15 0 -12 25 3 31 1 38 -8 23z"/>
<path d="M11220 5560 c0 -5 5 -10 10 -10 6 0 10 5 10 10 0 6 -4 10 -10 10 -5
0 -10 -4 -10 -10z"/>
<path d="M7864 5535 c-18 -15 -18 -15 0 -8 15 5 17 3 11 -8 -5 -8 -4 -11 0 -6
8 7 17 37 11 37 -1 0 -11 -7 -22 -15z"/>
<path d="M14044 5328 c-6 -9 4 -28 15 -28 4 0 17 8 29 18 l21 19 -30 0 c-16 0
-32 -4 -35 -9z m26 -8 c0 -5 -4 -10 -10 -10 -5 0 -10 5 -10 10 0 6 5 10 10 10
6 0 10 -4 10 -10z"/>
<path d="M14110 5219 c0 -5 5 -7 10 -4 6 3 10 8 10 11 0 2 -4 4 -10 4 -5 0
-10 -5 -10 -11z"/>
<path d="M13590 5110 c0 -6 5 -8 10 -5 6 3 10 2 10 -4 0 -5 -6 -11 -12 -14 -7
-2 -9 -8 -5 -13 9 -9 28 16 24 30 -5 14 -27 19 -27 6z"/>
<path d="M12726 5078 c3 -7 17 -22 32 -33 l27 -20 -25 32 c-25 32 -44 43 -34
21z"/>
<path d="M13590 5050 c0 -5 5 -10 10 -10 6 0 10 5 10 10 0 6 -4 10 -10 10 -5
0 -10 -4 -10 -10z"/>
<path d="M13590 5020 c0 -5 5 -10 10 -10 6 0 10 5 10 10 0 6 -4 10 -10 10 -5
0 -10 -4 -10 -10z"/>
<path d="M10870 4989 c0 -5 5 -7 10 -4 6 3 10 1 10 -4 0 -6 5 -11 11 -11 8 0
8 5 -1 15 -14 17 -30 20 -30 4z"/>
<path d="M12882 4986 c7 -8 16 -12 20 -10 4 2 9 0 13 -6 3 -5 12 -10 18 -10 7
0 -1 9 -18 20 -35 23 -51 26 -33 6z"/>
<path d="M13590 4990 c0 -5 5 -10 10 -10 6 0 10 5 10 10 0 6 -4 10 -10 10 -5
0 -10 -4 -10 -10z"/>
<path d="M13586 4953 c-4 -9 -2 -21 4 -27 8 -8 9 -6 5 7 -4 10 -2 17 4 17 6 0
11 -5 11 -12 0 -6 2 -9 5 -6 7 7 -5 38 -15 38 -4 0 -11 -8 -14 -17z"/>
<path d="M10664 4921 c4 -5 1 -12 -4 -14 -6 -3 -5 -4 2 -3 15 3 23 26 8 26 -6
0 -9 -4 -6 -9z"/>
<path d="M10690 4919 c0 -5 5 -7 10 -4 6 3 10 8 10 11 0 2 -4 4 -10 4 -5 0
-10 -5 -10 -11z"/>
<path d="M13075 4920 c3 -5 8 -10 11 -10 2 0 4 5 4 10 0 6 -5 10 -11 10 -5 0
-7 -4 -4 -10z"/>
</g>
</svg>
